<svg width="335" height="655" viewBox="0 0 335 655" fill="none" xmlns="http://www.w3.org/2000/svg">
<rect width="4.66268" height="4.34012" rx="2" transform="matrix(0.999758 -0.0309434 -0.00124377 1.00011 203.987 395.961)" fill="#83E1E1" fill-opacity="0.38"/>
<rect width="4.66269" height="4.34115" rx="2" transform="matrix(0.99976 -0.0308157 -0.00129049 1.00011 204.802 529.909)" fill="#83E1E1" fill-opacity="0.38"/>
<rect width="4.66253" height="4.33944" rx="2" transform="matrix(0.99976 -0.0308109 -0.00128751 1.00011 204.395 462.935)" fill="#83E1E1" fill-opacity="0.38"/>
<rect width="4.66268" height="4.33978" rx="2" transform="matrix(0.99976 -0.0308107 -0.00128859 1.00011 205.21 596.884)" fill="#83E1E1" fill-opacity="0.38"/>
<rect width="4.66268" height="4.3408" rx="2" transform="matrix(0.99976 -0.0308146 -0.00128987 1.00011 204.191 429.448)" fill="#83E1E1" fill-opacity="0.38"/>
<rect width="4.66254" height="4.34115" rx="2" transform="matrix(0.99976 -0.0308164 -0.00129051 1.00011 205.007 563.396)" fill="#83E1E1" fill-opacity="0.38"/>
<rect width="4.66268" height="4.34012" rx="2" transform="matrix(0.99976 -0.030812 -0.00128887 1.00011 204.598 496.422)" fill="#83E1E1" fill-opacity="0.38"/>
<rect width="4.66254" height="4.3408" rx="2" transform="matrix(0.99976 -0.0308153 -0.00129004 1.00011 205.414 630.371)" fill="#83E1E1" fill-opacity="0.38"/>
<rect width="4.66254" height="4.3408" rx="2" transform="matrix(0.99976 -0.0308159 -0.00128974 1.00011 204.089 412.704)" fill="#83E1E1" fill-opacity="0.38"/>
<rect width="4.66268" height="4.34046" rx="2" transform="matrix(0.99976 -0.0308139 -0.00128904 1.00011 204.904 546.652)" fill="#83E1E1" fill-opacity="0.38"/>
<rect width="4.66268" height="4.34046" rx="2" transform="matrix(0.99976 -0.0308134 -0.00128957 1.00011 204.497 479.679)" fill="#83E1E1" fill-opacity="0.38"/>
<rect width="4.66268" height="4.33944" rx="2" transform="matrix(0.99976 -0.0308099 -0.0012878 1.00011 205.312 613.627)" fill="#83E1E1" fill-opacity="0.38"/>
<rect width="4.6627" height="4.3394" rx="2" transform="matrix(0.99976 -0.0308183 -0.00129244 1.00011 204.293 446.192)" fill="#83E1E1" fill-opacity="0.38"/>
<rect width="4.66268" height="4.33944" rx="2" transform="matrix(0.99976 -0.0308094 -0.00128798 1.00011 205.109 580.14)" fill="#83E1E1" fill-opacity="0.38"/>
<rect width="4.66253" height="4.3391" rx="2" transform="matrix(0.99976 -0.0308084 -0.0012879 1.00011 204.701 513.167)" fill="#83E1E1" fill-opacity="0.38"/>
<rect width="4.66268" height="4.3408" rx="2" transform="matrix(0.99976 -0.030815 -0.0012896 1.00011 205.516 647.114)" fill="#83E1E1" fill-opacity="0.38"/>
<rect width="4.66253" height="4.33944" rx="2" transform="matrix(0.99976 -0.0308102 -0.00128814 1.00011 274.355 394.774)" fill="#83E1E1" fill-opacity="0.38"/>
<rect width="4.66268" height="4.34114" rx="2" transform="matrix(0.99976 -0.0308167 -0.00128982 1.00011 275.17 528.72)" fill="#83E1E1" fill-opacity="0.38"/>
<rect width="4.66268" height="4.33944" rx="2" transform="matrix(0.99976 -0.0308099 -0.00128767 1.00011 274.762 461.747)" fill="#83E1E1" fill-opacity="0.38"/>
<rect width="4.66268" height="4.34012" rx="2" transform="matrix(0.99976 -0.0308125 -0.00128883 1.00011 275.578 595.695)" fill="#83E1E1" fill-opacity="0.38"/>
<rect width="4.66268" height="4.33978" rx="2" transform="matrix(0.99976 -0.0308106 -0.00128862 1.00011 274.559 428.26)" fill="#83E1E1" fill-opacity="0.38"/>
<rect width="4.66268" height="4.33944" rx="2" transform="matrix(0.99976 -0.0308107 -0.00128726 1.00011 275.374 562.208)" fill="#83E1E1" fill-opacity="0.38"/>
<rect width="4.66268" height="4.33911" rx="2" transform="matrix(0.99976 -0.0308073 -0.00128791 1.00011 274.966 495.235)" fill="#83E1E1" fill-opacity="0.38"/>
<rect width="4.66253" height="4.34012" rx="2" transform="matrix(0.99976 -0.0308136 -0.00128874 1.00011 275.782 629.183)" fill="#83E1E1" fill-opacity="0.38"/>
<rect width="4.66268" height="4.33979" rx="2" transform="matrix(0.99976 -0.0308101 -0.00128886 1.00011 274.457 411.516)" fill="#83E1E1" fill-opacity="0.38"/>
<rect width="4.66269" height="4.34115" rx="2" transform="matrix(0.99976 -0.0308155 -0.00129069 1.00011 275.272 545.464)" fill="#83E1E1" fill-opacity="0.38"/>
<rect width="4.66268" height="4.3408" rx="2" transform="matrix(0.99976 -0.0308146 -0.00128985 1.00011 274.865 478.49)" fill="#83E1E1" fill-opacity="0.38"/>
<rect width="4.66268" height="4.34046" rx="2" transform="matrix(0.99976 -0.0308136 -0.00128936 1.00011 275.68 612.438)" fill="#83E1E1" fill-opacity="0.38"/>
<rect width="4.66268" height="4.33978" rx="2" transform="matrix(0.99976 -0.0308111 -0.00128832 1.00011 274.661 445.003)" fill="#83E1E1" fill-opacity="0.38"/>
<rect width="4.66253" height="4.34012" rx="2" transform="matrix(0.99976 -0.0308133 -0.00128891 1.00011 275.476 578.951)" fill="#83E1E1" fill-opacity="0.38"/>
<rect width="4.66268" height="4.34046" rx="2" transform="matrix(0.99976 -0.0308132 -0.00128938 1.00011 275.068 511.977)" fill="#83E1E1" fill-opacity="0.38"/>
<rect width="4.66268" height="4.33944" rx="2" transform="matrix(0.99976 -0.0308101 -0.00128773 1.00011 275.884 645.926)" fill="#83E1E1" fill-opacity="0.38"/>
<rect width="4.66269" height="4.34081" rx="2" transform="matrix(0.99976 -0.0308144 -0.00129009 1.00011 221.579 395.664)" fill="#83E1E1" fill-opacity="0.38"/>
<rect width="4.66253" height="4.33978" rx="2" transform="matrix(0.99976 -0.0308114 -0.00128852 1.00011 222.395 529.613)" fill="#83E1E1" fill-opacity="0.38"/>
<rect width="4.66268" height="4.33944" rx="2" transform="matrix(0.99976 -0.03081 -0.00128761 1.00011 221.986 462.638)" fill="#83E1E1" fill-opacity="0.38"/>
<rect width="4.66268" height="4.33978" rx="2" transform="matrix(0.99976 -0.0308107 -0.00128858 1.00011 222.801 596.587)" fill="#83E1E1" fill-opacity="0.38"/>
<rect width="4.66268" height="4.34012" rx="2" transform="matrix(0.99976 -0.0308119 -0.00128896 1.00011 221.782 429.151)" fill="#83E1E1" fill-opacity="0.38"/>
<rect width="4.66268" height="4.33876" rx="2" transform="matrix(0.99976 -0.0308076 -0.00128657 1.00011 222.598 563.1)" fill="#83E1E1" fill-opacity="0.38"/>
<rect width="4.66254" height="4.33979" rx="2" transform="matrix(0.99976 -0.0308111 -0.00128876 1.00011 222.19 496.125)" fill="#83E1E1" fill-opacity="0.38"/>
<rect width="4.66268" height="4.34046" rx="2" transform="matrix(0.99976 -0.0308135 -0.00128935 1.00011 223.005 630.072)" fill="#83E1E1" fill-opacity="0.38"/>
<rect width="4.66268" height="4.33978" rx="2" transform="matrix(0.99976 -0.0308104 -0.00128862 1.00011 221.681 412.407)" fill="#83E1E1" fill-opacity="0.38"/>
<rect width="4.66268" height="4.33944" rx="2" transform="matrix(0.99976 -0.03081 -0.00128775 1.00011 222.496 546.356)" fill="#83E1E1" fill-opacity="0.38"/>
<rect width="4.66268" height="4.34046" rx="2" transform="matrix(0.99976 -0.0308139 -0.00128907 1.00011 222.088 479.382)" fill="#83E1E1" fill-opacity="0.38"/>
<rect width="4.66268" height="4.3391" rx="2" transform="matrix(0.99976 -0.030809 -0.00128702 1.00011 222.904 613.331)" fill="#83E1E1" fill-opacity="0.38"/>
<rect width="4.6627" height="4.3394" rx="2" transform="matrix(0.99976 -0.0308189 -0.00129301 1.00011 221.884 445.896)" fill="#83E1E1" fill-opacity="0.38"/>
<rect width="4.66268" height="4.3391" rx="2" transform="matrix(0.99976 -0.030808 -0.00128769 1.00011 222.699 579.843)" fill="#83E1E1" fill-opacity="0.38"/>
<rect width="4.66268" height="4.33945" rx="2" transform="matrix(0.99976 -0.0308087 -0.00128844 1.00011 222.292 512.869)" fill="#83E1E1" fill-opacity="0.38"/>
<rect width="4.66269" height="4.3408" rx="2" transform="matrix(0.99976 -0.0308145 -0.00129001 1.00011 223.108 646.816)" fill="#83E1E1" fill-opacity="0.38"/>
<rect width="4.66252" height="4.34087" rx="2" transform="matrix(0.999759 -0.0308758 -0.00131904 1.00011 291.947 394.475)" fill="#83E1E1" fill-opacity="0.38"/>
<rect width="4.66254" height="4.34046" rx="2" transform="matrix(0.99976 -0.0308146 -0.00128923 1.00011 292.763 528.423)" fill="#83E1E1" fill-opacity="0.38"/>
<rect width="4.66268" height="4.33944" rx="2" transform="matrix(0.99976 -0.0308106 -0.00128736 1.00011 292.354 461.45)" fill="#83E1E1" fill-opacity="0.38"/>
<rect width="4.66268" height="4.3408" rx="2" transform="matrix(0.99976 -0.0308145 -0.00128991 1.00011 293.171 595.398)" fill="#83E1E1" fill-opacity="0.38"/>
<rect width="4.66268" height="4.3408" rx="2" transform="matrix(0.99976 -0.0308153 -0.00128961 1.00011 292.15 427.962)" fill="#83E1E1" fill-opacity="0.38"/>
<rect width="4.66268" height="4.34012" rx="2" transform="matrix(0.99976 -0.0308127 -0.00128863 1.00011 292.966 561.911)" fill="#83E1E1" fill-opacity="0.38"/>
<rect width="4.66254" height="4.3408" rx="2" transform="matrix(0.99976 -0.0308166 -0.00128956 1.00011 292.558 494.937)" fill="#83E1E1" fill-opacity="0.38"/>
<rect width="4.66268" height="4.34046" rx="2" transform="matrix(0.99976 -0.0308137 -0.0012893 1.00011 293.374 628.885)" fill="#83E1E1" fill-opacity="0.38"/>
<rect width="4.66254" height="4.3408" rx="2" transform="matrix(0.99976 -0.0308156 -0.00128998 1.00011 292.049 411.219)" fill="#83E1E1" fill-opacity="0.38"/>
<rect width="4.66254" height="4.33978" rx="2" transform="matrix(0.99976 -0.0308114 -0.00128885 1.00011 292.864 545.167)" fill="#83E1E1" fill-opacity="0.38"/>
<rect width="4.66254" height="4.33978" rx="2" transform="matrix(0.99976 -0.0308113 -0.00128881 1.00011 292.457 478.193)" fill="#83E1E1" fill-opacity="0.38"/>
<rect width="4.66268" height="4.33979" rx="2" transform="matrix(0.99976 -0.0308102 -0.00128889 1.00011 293.272 612.142)" fill="#83E1E1" fill-opacity="0.38"/>
<rect width="4.66268" height="4.34148" rx="2" transform="matrix(0.99976 -0.0308183 -0.00129032 1.00011 292.253 444.706)" fill="#83E1E1" fill-opacity="0.38"/>
<rect width="4.66268" height="4.3391" rx="2" transform="matrix(0.99976 -0.0308086 -0.00128725 1.00011 293.068 578.655)" fill="#83E1E1" fill-opacity="0.38"/>
<rect width="4.66268" height="4.33944" rx="2" transform="matrix(0.99976 -0.0308097 -0.00128794 1.00011 292.66 511.681)" fill="#83E1E1" fill-opacity="0.38"/>
<rect width="4.66254" height="4.34148" rx="2" transform="matrix(0.99976 -0.0308185 -0.00129077 1.00011 293.476 645.628)" fill="#83E1E1" fill-opacity="0.38"/>
<rect width="4.66268" height="4.33978" rx="2" transform="matrix(0.99976 -0.0308106 -0.00128863 1.00011 239.171 395.367)" fill="#83E1E1" fill-opacity="0.38"/>
<rect width="4.66253" height="4.33944" rx="2" transform="matrix(0.99976 -0.0308108 -0.0012878 1.00011 239.987 529.315)" fill="#83E1E1" fill-opacity="0.38"/>
<rect width="4.66269" height="4.34115" rx="2" transform="matrix(0.99976 -0.0308156 -0.00129056 1.00011 239.579 462.34)" fill="#83E1E1" fill-opacity="0.38"/>
<rect width="4.66253" height="4.33944" rx="2" transform="matrix(0.99976 -0.0308103 -0.00128805 1.00011 240.395 596.29)" fill="#83E1E1" fill-opacity="0.38"/>
<rect width="4.66268" height="4.33876" rx="2" transform="matrix(0.99976 -0.0308068 -0.00128696 1.00011 239.375 428.854)" fill="#83E1E1" fill-opacity="0.38"/>
<rect width="4.66268" height="4.34013" rx="2" transform="matrix(0.99976 -0.0308116 -0.00128903 1.00011 240.19 562.802)" fill="#83E1E1" fill-opacity="0.38"/>
<rect width="4.66253" height="4.33978" rx="2" transform="matrix(0.99976 -0.0308116 -0.00128866 1.00011 239.783 495.829)" fill="#83E1E1" fill-opacity="0.38"/>
<rect width="4.66268" height="4.34012" rx="2" transform="matrix(0.99976 -0.0308128 -0.00128844 1.00011 240.598 629.776)" fill="#83E1E1" fill-opacity="0.38"/>
<rect width="4.66268" height="4.34012" rx="2" transform="matrix(0.99976 -0.0308117 -0.00128919 1.00011 239.273 412.11)" fill="#83E1E1" fill-opacity="0.38"/>
<rect width="4.66268" height="4.3408" rx="2" transform="matrix(0.99976 -0.0308152 -0.00128949 1.00011 240.089 546.058)" fill="#83E1E1" fill-opacity="0.38"/>
<rect width="4.66253" height="4.33944" rx="2" transform="matrix(0.99976 -0.0308106 -0.00128776 1.00011 239.681 479.084)" fill="#83E1E1" fill-opacity="0.38"/>
<rect width="4.66268" height="4.34012" rx="2" transform="matrix(0.99976 -0.0308117 -0.00128896 1.00011 240.496 613.033)" fill="#83E1E1" fill-opacity="0.38"/>
<rect width="4.6627" height="4.33905" rx="2" transform="matrix(0.99976 -0.0308192 -0.00129255 1.00011 239.477 445.598)" fill="#83E1E1" fill-opacity="0.38"/>
<rect width="4.66253" height="4.33945" rx="2" transform="matrix(0.99976 -0.0308097 -0.00128845 1.00011 240.292 579.547)" fill="#83E1E1" fill-opacity="0.38"/>
<rect width="4.66268" height="4.33944" rx="2" transform="matrix(0.99976 -0.0308096 -0.00128792 1.00011 239.885 512.572)" fill="#83E1E1" fill-opacity="0.38"/>
<rect width="4.66254" height="4.34046" rx="2" transform="matrix(0.99976 -0.0308141 -0.00128953 1.00011 240.7 646.52)" fill="#83E1E1" fill-opacity="0.38"/>
<rect width="4.66267" height="4.33985" rx="2" transform="matrix(0.999759 -0.0308708 -0.00131793 1.00011 309.538 394.179)" fill="#83E1E1" fill-opacity="0.38"/>
<rect width="4.66268" height="4.34046" rx="2" transform="matrix(0.99976 -0.0308136 -0.00128917 1.00011 310.354 528.126)" fill="#83E1E1" fill-opacity="0.38"/>
<rect width="4.66253" height="4.3391" rx="2" transform="matrix(0.99976 -0.0308095 -0.00128718 1.00011 309.946 461.153)" fill="#83E1E1" fill-opacity="0.38"/>
<rect width="4.66268" height="4.3408" rx="2" transform="matrix(0.99976 -0.0308149 -0.00128978 1.00011 310.762 595.101)" fill="#83E1E1" fill-opacity="0.38"/>
<rect width="4.66268" height="4.34012" rx="2" transform="matrix(0.99976 -0.0308125 -0.00128877 1.00011 309.742 427.666)" fill="#83E1E1" fill-opacity="0.38"/>
<rect width="4.66268" height="4.34012" rx="2" transform="matrix(0.99976 -0.0308118 -0.00128909 1.00011 310.558 561.613)" fill="#83E1E1" fill-opacity="0.38"/>
<rect width="4.66268" height="4.3391" rx="2" transform="matrix(0.99976 -0.030808 -0.00128743 1.00011 310.15 494.64)" fill="#83E1E1" fill-opacity="0.38"/>
<rect width="4.66254" height="4.34046" rx="2" transform="matrix(0.99976 -0.0308141 -0.00128955 1.00011 310.965 628.588)" fill="#83E1E1" fill-opacity="0.38"/>
<rect width="4.66253" height="4.33944" rx="2" transform="matrix(0.99976 -0.0308102 -0.00128823 1.00011 309.64 410.922)" fill="#83E1E1" fill-opacity="0.38"/>
<rect width="4.66268" height="4.33842" rx="2" transform="matrix(0.99976 -0.0308059 -0.00128625 1.00011 310.456 544.872)" fill="#83E1E1" fill-opacity="0.38"/>
<rect width="4.66268" height="4.33978" rx="2" transform="matrix(0.99976 -0.0308111 -0.00128836 1.00011 310.048 477.896)" fill="#83E1E1" fill-opacity="0.38"/>
<rect width="4.66254" height="4.34047" rx="2" transform="matrix(0.99976 -0.0308134 -0.00128981 1.00011 310.864 611.844)" fill="#83E1E1" fill-opacity="0.38"/>
<rect width="4.66254" height="4.34046" rx="2" transform="matrix(0.99976 -0.0308146 -0.00128943 1.00011 309.845 444.408)" fill="#83E1E1" fill-opacity="0.38"/>
<rect width="4.66253" height="4.33944" rx="2" transform="matrix(0.99976 -0.0308107 -0.00128776 1.00011 310.659 578.358)" fill="#83E1E1" fill-opacity="0.38"/>
<rect width="4.66254" height="4.3408" rx="2" transform="matrix(0.99976 -0.0308159 -0.00128964 1.00011 310.252 511.383)" fill="#83E1E1" fill-opacity="0.38"/>
<rect width="4.66268" height="4.33978" rx="2" transform="matrix(0.99976 -0.0308107 -0.00128848 1.00011 311.068 645.331)" fill="#83E1E1" fill-opacity="0.38"/>
<rect width="4.66268" height="4.34046" rx="2" transform="matrix(0.99976 -0.0308134 -0.00128934 1.00011 256.763 395.07)" fill="#83E1E1" fill-opacity="0.38"/>
<rect width="4.66268" height="4.3408" rx="2" transform="matrix(0.99976 -0.0308149 -0.00128984 1.00011 257.578 529.017)" fill="#83E1E1" fill-opacity="0.38"/>
<rect width="4.66268" height="4.33944" rx="2" transform="matrix(0.99976 -0.0308094 -0.00128798 1.00011 257.171 462.044)" fill="#83E1E1" fill-opacity="0.38"/>
<rect width="4.66268" height="4.33979" rx="2" transform="matrix(0.99976 -0.0308102 -0.00128886 1.00011 257.986 595.992)" fill="#83E1E1" fill-opacity="0.38"/>
<rect width="4.66268" height="4.33978" rx="2" transform="matrix(0.99976 -0.0308104 -0.00128861 1.00011 256.967 428.557)" fill="#83E1E1" fill-opacity="0.38"/>
<rect width="4.66253" height="4.33842" rx="2" transform="matrix(0.99976 -0.0308068 -0.00128631 1.00011 257.782 562.506)" fill="#83E1E1" fill-opacity="0.38"/>
<rect width="4.66268" height="4.33876" rx="2" transform="matrix(0.99976 -0.0308066 -0.00128722 1.00011 257.374 495.531)" fill="#83E1E1" fill-opacity="0.38"/>
<rect width="4.66268" height="4.33978" rx="2" transform="matrix(0.99976 -0.0308112 -0.00128822 1.00011 258.19 629.48)" fill="#83E1E1" fill-opacity="0.38"/>
<rect width="4.66268" height="4.33978" rx="2" transform="matrix(0.99976 -0.0308105 -0.00128855 1.00011 256.865 411.813)" fill="#83E1E1" fill-opacity="0.38"/>
<rect width="4.66268" height="4.33842" rx="2" transform="matrix(0.99976 -0.030806 -0.00128628 1.00011 257.68 545.763)" fill="#83E1E1" fill-opacity="0.38"/>
<rect width="4.66268" height="4.33979" rx="2" transform="matrix(0.99976 -0.0308099 -0.0012889 1.00011 257.273 478.788)" fill="#83E1E1" fill-opacity="0.38"/>
<rect width="4.66268" height="4.33944" rx="2" transform="matrix(0.99976 -0.0308095 -0.00128801 1.00011 258.088 612.735)" fill="#83E1E1" fill-opacity="0.38"/>
<rect width="4.6627" height="4.33974" rx="2" transform="matrix(0.99976 -0.03082 -0.00129354 1.00011 257.069 445.301)" fill="#83E1E1" fill-opacity="0.38"/>
<rect width="4.66253" height="4.33842" rx="2" transform="matrix(0.99976 -0.0308066 -0.00128638 1.00011 257.884 579.249)" fill="#83E1E1" fill-opacity="0.38"/>
<rect width="4.66268" height="4.33978" rx="2" transform="matrix(0.99976 -0.0308106 -0.00128866 1.00011 257.476 512.275)" fill="#83E1E1" fill-opacity="0.38"/>
<rect width="4.66254" height="4.3408" rx="2" transform="matrix(0.99976 -0.0308152 -0.00129017 1.00011 258.293 646.222)" fill="#83E1E1" fill-opacity="0.38"/>
<rect width="4.66268" height="4.33978" rx="2" transform="matrix(0.99976 -0.0308106 -0.00128862 1.00011 327.13 393.882)" fill="#83E1E1" fill-opacity="0.38"/>
<rect width="4.66253" height="4.33944" rx="2" transform="matrix(0.99976 -0.0308102 -0.00128818 1.00011 327.946 527.831)" fill="#83E1E1" fill-opacity="0.38"/>
<rect width="4.66269" height="4.34013" rx="2" transform="matrix(0.99976 -0.0308111 -0.00128938 1.00011 327.538 460.855)" fill="#83E1E1" fill-opacity="0.38"/>
<rect width="4.66268" height="4.3391" rx="2" transform="matrix(0.99976 -0.0308087 -0.00128736 1.00011 328.353 594.805)" fill="#83E1E1" fill-opacity="0.38"/>
<rect width="4.66254" height="4.34047" rx="2" transform="matrix(0.99976 -0.0308135 -0.00128994 1.00011 327.334 427.369)" fill="#83E1E1" fill-opacity="0.38"/>
<rect width="4.66269" height="4.34047" rx="2" transform="matrix(0.99976 -0.030813 -0.00128983 1.00011 328.15 561.316)" fill="#83E1E1" fill-opacity="0.38"/>
<rect width="4.66268" height="4.33944" rx="2" transform="matrix(0.99976 -0.0308094 -0.00128801 1.00011 327.742 494.343)" fill="#83E1E1" fill-opacity="0.38"/>
<rect width="4.66268" height="4.33978" rx="2" transform="matrix(0.99976 -0.0308105 -0.00128878 1.00011 328.557 628.291)" fill="#83E1E1" fill-opacity="0.38"/>
<rect width="4.66268" height="4.34046" rx="2" transform="matrix(0.99976 -0.0308136 -0.00128917 1.00011 327.233 410.624)" fill="#83E1E1" fill-opacity="0.38"/>
<rect width="4.66254" height="4.3408" rx="2" transform="matrix(0.99976 -0.0308157 -0.00128999 1.00011 328.047 544.573)" fill="#83E1E1" fill-opacity="0.38"/>
<rect width="4.66268" height="4.34012" rx="2" transform="matrix(0.99976 -0.0308125 -0.00128857 1.00011 327.639 477.599)" fill="#83E1E1" fill-opacity="0.38"/>
<rect width="4.66268" height="4.34047" rx="2" transform="matrix(0.99976 -0.030813 -0.00128956 1.00011 328.456 611.547)" fill="#83E1E1" fill-opacity="0.38"/>
<rect width="4.66268" height="4.34013" rx="2" transform="matrix(0.99976 -0.0308115 -0.00128917 1.00011 327.436 444.112)" fill="#83E1E1" fill-opacity="0.38"/>
<rect width="4.66253" height="4.33944" rx="2" transform="matrix(0.99976 -0.0308102 -0.00128821 1.00011 328.252 578.06)" fill="#83E1E1" fill-opacity="0.38"/>
<rect width="4.66268" height="4.33979" rx="2" transform="matrix(0.99976 -0.0308102 -0.00128882 1.00011 327.844 511.086)" fill="#83E1E1" fill-opacity="0.38"/>
<rect width="4.66253" height="4.33808" rx="2" transform="matrix(0.99976 -0.0308058 -0.00128568 1.00011 328.659 645.034)" fill="#83E1E1" fill-opacity="0.38"/>
<rect width="4.66268" height="4.33978" rx="2" transform="matrix(0.999758 -0.0309415 -0.00124343 1.00011 64.1781 398.326)" fill="#83E1E1" fill-opacity="0.38"/>
<rect width="4.66253" height="4.33808" rx="2" transform="matrix(0.99976 -0.030805 -0.00128616 1.00011 64.9938 532.274)" fill="#83E1E1" fill-opacity="0.38"/>
<rect width="4.66268" height="4.33979" rx="2" transform="matrix(0.99976 -0.0308101 -0.00128885 1.00011 64.5859 465.298)" fill="#83E1E1" fill-opacity="0.38"/>
<rect width="4.66268" height="4.33978" rx="2" transform="matrix(0.99976 -0.0308104 -0.00128876 1.00011 65.4014 599.247)" fill="#83E1E1" fill-opacity="0.38"/>
<rect width="4.66268" height="4.33944" rx="2" transform="matrix(0.99976 -0.0308097 -0.00128771 1.00011 64.3823 431.812)" fill="#83E1E1" fill-opacity="0.38"/>
<rect width="4.66268" height="4.3391" rx="2" transform="matrix(0.99976 -0.0308085 -0.00128724 1.00011 65.1978 565.76)" fill="#83E1E1" fill-opacity="0.38"/>
<rect width="4.66268" height="4.3408" rx="2" transform="matrix(0.99976 -0.0308144 -0.00128992 1.00011 64.7894 498.785)" fill="#83E1E1" fill-opacity="0.38"/>
<rect width="4.66268" height="4.33944" rx="2" transform="matrix(0.99976 -0.0308098 -0.00128765 1.00011 65.605 632.734)" fill="#83E1E1" fill-opacity="0.38"/>
<rect width="4.66253" height="4.33876" rx="2" transform="matrix(0.99976 -0.030808 -0.00128673 1.00011 64.2804 415.069)" fill="#83E1E1" fill-opacity="0.38"/>
<rect width="4.66253" height="4.33876" rx="2" transform="matrix(0.99976 -0.0308077 -0.001287 1.00011 65.0955 549.017)" fill="#83E1E1" fill-opacity="0.38"/>
<rect width="4.66254" height="4.34012" rx="2" transform="matrix(0.99976 -0.0308128 -0.00128905 1.00011 64.688 482.042)" fill="#83E1E1" fill-opacity="0.38"/>
<rect width="4.66268" height="4.34012" rx="2" transform="matrix(0.99976 -0.0308123 -0.00128872 1.00011 65.5031 615.99)" fill="#83E1E1" fill-opacity="0.38"/>
<rect width="4.6627" height="4.33906" rx="2" transform="matrix(0.99976 -0.0308163 -0.00129245 1.00011 64.4836 448.556)" fill="#83E1E1" fill-opacity="0.38"/>
<rect width="4.66253" height="4.34012" rx="2" transform="matrix(0.99976 -0.0308133 -0.00128871 1.00011 65.2996 582.503)" fill="#83E1E1" fill-opacity="0.38"/>
<rect width="4.66253" height="4.33944" rx="2" transform="matrix(0.99976 -0.0308101 -0.00128795 1.00011 64.892 515.53)" fill="#83E1E1" fill-opacity="0.38"/>
<rect width="4.66253" height="4.33944" rx="2" transform="matrix(0.99976 -0.0308105 -0.00128776 1.00011 65.7073 649.478)" fill="#83E1E1" fill-opacity="0.38"/>
<rect width="4.66268" height="4.34046" rx="2" transform="matrix(0.99976 -0.030813 -0.00128942 1.00011 134.546 397.135)" fill="#83E1E1" fill-opacity="0.38"/>
<rect width="4.66254" height="4.34046" rx="2" transform="matrix(0.99976 -0.0308146 -0.00128934 1.00011 135.361 531.083)" fill="#83E1E1" fill-opacity="0.38"/>
<rect width="4.66268" height="4.34148" rx="2" transform="matrix(0.99976 -0.0308183 -0.00129021 1.00011 134.953 464.108)" fill="#83E1E1" fill-opacity="0.38"/>
<rect width="4.66268" height="4.34012" rx="2" transform="matrix(0.99976 -0.0308124 -0.00128883 1.00011 135.769 598.058)" fill="#83E1E1" fill-opacity="0.38"/>
<rect width="4.66268" height="4.3408" rx="2" transform="matrix(0.99976 -0.0308152 -0.0012895 1.00011 134.749 430.622)" fill="#83E1E1" fill-opacity="0.38"/>
<rect width="4.66268" height="4.33978" rx="2" transform="matrix(0.99976 -0.0308118 -0.00128785 1.00011 135.565 564.571)" fill="#83E1E1" fill-opacity="0.38"/>
<rect width="4.66269" height="4.34013" rx="2" transform="matrix(0.99976 -0.0308114 -0.00128934 1.00011 135.157 497.597)" fill="#83E1E1" fill-opacity="0.38"/>
<rect width="4.66268" height="4.33876" rx="2" transform="matrix(0.99976 -0.0308073 -0.00128677 1.00011 135.973 631.546)" fill="#83E1E1" fill-opacity="0.38"/>
<rect width="4.66268" height="4.34012" rx="2" transform="matrix(0.99976 -0.0308124 -0.00128879 1.00011 134.648 413.879)" fill="#83E1E1" fill-opacity="0.38"/>
<rect width="4.66254" height="4.34046" rx="2" transform="matrix(0.99976 -0.0308144 -0.00128922 1.00011 135.463 547.827)" fill="#83E1E1" fill-opacity="0.38"/>
<rect width="4.66254" height="4.3408" rx="2" transform="matrix(0.99976 -0.030816 -0.00128985 1.00011 135.056 480.853)" fill="#83E1E1" fill-opacity="0.38"/>
<rect width="4.66253" height="4.33978" rx="2" transform="matrix(0.99976 -0.0308119 -0.00128831 1.00011 135.87 614.801)" fill="#83E1E1" fill-opacity="0.38"/>
<rect width="4.66268" height="4.33978" rx="2" transform="matrix(0.99976 -0.0308114 -0.00128808 1.00011 134.852 447.366)" fill="#83E1E1" fill-opacity="0.38"/>
<rect width="4.66268" height="4.33876" rx="2" transform="matrix(0.99976 -0.0308079 -0.00128635 1.00011 135.667 581.315)" fill="#83E1E1" fill-opacity="0.38"/>
<rect width="4.66253" height="4.33978" rx="2" transform="matrix(0.99976 -0.0308117 -0.00128845 1.00011 135.259 514.34)" fill="#83E1E1" fill-opacity="0.38"/>
<rect width="4.66253" height="4.33944" rx="2" transform="matrix(0.99976 -0.0308103 -0.00128769 1.00011 136.075 648.289)" fill="#83E1E1" fill-opacity="0.38"/>
<rect width="4.66268" height="4.34046" rx="2" transform="matrix(0.99976 -0.0308136 -0.00128934 1.00011 81.7694 398.027)" fill="#83E1E1" fill-opacity="0.38"/>
<rect width="4.66268" height="4.33842" rx="2" transform="matrix(0.99976 -0.0308053 -0.00128649 1.00011 82.5848 531.976)" fill="#83E1E1" fill-opacity="0.38"/>
<rect width="4.66253" height="4.33877" rx="2" transform="matrix(0.99976 -0.030807 -0.00128732 1.00011 82.1771 465.002)" fill="#83E1E1" fill-opacity="0.38"/>
<rect width="4.66268" height="4.3391" rx="2" transform="matrix(0.99976 -0.0308083 -0.00128731 1.00011 82.9922 598.951)" fill="#83E1E1" fill-opacity="0.38"/>
<rect width="4.66268" height="4.33877" rx="2" transform="matrix(0.99976 -0.0308061 -0.00128738 1.00011 81.9735 431.515)" fill="#83E1E1" fill-opacity="0.38"/>
<rect width="4.66268" height="4.33876" rx="2" transform="matrix(0.99976 -0.0308069 -0.00128674 1.00011 82.7887 565.462)" fill="#83E1E1" fill-opacity="0.38"/>
<rect width="4.66253" height="4.33978" rx="2" transform="matrix(0.99976 -0.0308116 -0.00128849 1.00011 82.3802 498.488)" fill="#83E1E1" fill-opacity="0.38"/>
<rect width="4.66253" height="4.33876" rx="2" transform="matrix(0.99976 -0.0308079 -0.00128675 1.00011 83.1964 632.437)" fill="#83E1E1" fill-opacity="0.38"/>
<rect width="4.66253" height="4.33876" rx="2" transform="matrix(0.99976 -0.0308077 -0.00128696 1.00011 81.8713 414.771)" fill="#83E1E1" fill-opacity="0.38"/>
<rect width="4.66268" height="4.33944" rx="2" transform="matrix(0.99976 -0.0308098 -0.00128763 1.00011 82.687 548.719)" fill="#83E1E1" fill-opacity="0.38"/>
<rect width="4.66268" height="4.33944" rx="2" transform="matrix(0.99976 -0.0308096 -0.00128781 1.00011 82.2793 481.744)" fill="#83E1E1" fill-opacity="0.38"/>
<rect width="4.66268" height="4.33944" rx="2" transform="matrix(0.99976 -0.0308097 -0.00128769 1.00011 83.0936 615.694)" fill="#83E1E1" fill-opacity="0.38"/>
<rect width="4.66268" height="4.3391" rx="2" transform="matrix(0.99976 -0.0308082 -0.00128735 1.00011 82.0754 448.257)" fill="#83E1E1" fill-opacity="0.38"/>
<rect width="4.66254" height="4.34013" rx="2" transform="matrix(0.99976 -0.0308123 -0.00128935 1.00011 82.8907 582.207)" fill="#83E1E1" fill-opacity="0.38"/>
<rect width="4.66254" height="4.34013" rx="2" transform="matrix(0.99976 -0.0308121 -0.00128926 1.00011 82.4829 515.232)" fill="#83E1E1" fill-opacity="0.38"/>
<rect width="4.66268" height="4.33944" rx="2" transform="matrix(0.99976 -0.0308094 -0.00128779 1.00011 83.2983 649.181)" fill="#83E1E1" fill-opacity="0.38"/>
<rect width="4.66266" height="4.34087" rx="2" transform="matrix(0.999759 -0.0308743 -0.00131849 1.00011 152.138 396.838)" fill="#83E1E1" fill-opacity="0.38"/>
<rect width="4.66254" height="4.34115" rx="2" transform="matrix(0.99976 -0.0308164 -0.00129043 1.00011 152.953 530.787)" fill="#83E1E1" fill-opacity="0.38"/>
<rect width="4.66268" height="4.34012" rx="2" transform="matrix(0.99976 -0.0308133 -0.00128827 1.00011 152.545 463.813)" fill="#83E1E1" fill-opacity="0.38"/>
<rect width="4.66268" height="4.33944" rx="2" transform="matrix(0.99976 -0.0308095 -0.00128794 1.00011 153.36 597.761)" fill="#83E1E1" fill-opacity="0.38"/>
<rect width="4.66254" height="4.34046" rx="2" transform="matrix(0.99976 -0.0308143 -0.00128941 1.00011 152.341 430.325)" fill="#83E1E1" fill-opacity="0.38"/>
<rect width="4.66253" height="4.3391" rx="2" transform="matrix(0.99976 -0.0308088 -0.0012876 1.00011 153.157 564.275)" fill="#83E1E1" fill-opacity="0.38"/>
<rect width="4.66268" height="4.33978" rx="2" transform="matrix(0.99976 -0.0308112 -0.00128812 1.00011 152.749 497.3)" fill="#83E1E1" fill-opacity="0.38"/>
<rect width="4.66253" height="4.3391" rx="2" transform="matrix(0.99976 -0.0308084 -0.00128779 1.00011 153.564 631.249)" fill="#83E1E1" fill-opacity="0.38"/>
<rect width="4.66254" height="4.34046" rx="2" transform="matrix(0.99976 -0.0308143 -0.00128946 1.00011 152.24 413.582)" fill="#83E1E1" fill-opacity="0.38"/>
<rect width="4.66269" height="4.34115" rx="2" transform="matrix(0.99976 -0.0308156 -0.00129033 1.00011 153.055 547.53)" fill="#83E1E1" fill-opacity="0.38"/>
<rect width="4.66268" height="4.33876" rx="2" transform="matrix(0.99976 -0.030807 -0.00128689 1.00011 152.647 480.557)" fill="#83E1E1" fill-opacity="0.38"/>
<rect width="4.66268" height="4.3408" rx="2" transform="matrix(0.99976 -0.030815 -0.00128954 1.00011 153.462 614.504)" fill="#83E1E1" fill-opacity="0.38"/>
<rect width="4.66268" height="4.33944" rx="2" transform="matrix(0.99976 -0.0308105 -0.00128739 1.00011 152.443 447.07)" fill="#83E1E1" fill-opacity="0.38"/>
<rect width="4.66268" height="4.33944" rx="2" transform="matrix(0.99976 -0.0308095 -0.00128787 1.00011 153.259 581.017)" fill="#83E1E1" fill-opacity="0.38"/>
<rect width="4.66268" height="4.34046" rx="2" transform="matrix(0.99976 -0.0308138 -0.00128906 1.00011 152.851 514.043)" fill="#83E1E1" fill-opacity="0.38"/>
<rect width="4.66268" height="4.3391" rx="2" transform="matrix(0.99976 -0.0308091 -0.00128686 1.00011 153.666 647.992)" fill="#83E1E1" fill-opacity="0.38"/>
<rect width="4.66254" height="4.33979" rx="2" transform="matrix(0.99976 -0.0308108 -0.00128899 1.00011 99.3622 397.73)" fill="#83E1E1" fill-opacity="0.38"/>
<rect width="4.66254" height="4.3408" rx="2" transform="matrix(0.99976 -0.0308156 -0.00128974 1.00011 100.177 531.677)" fill="#83E1E1" fill-opacity="0.38"/>
<rect width="4.66268" height="4.33944" rx="2" transform="matrix(0.99976 -0.0308096 -0.00128784 1.00011 99.7698 464.704)" fill="#83E1E1" fill-opacity="0.38"/>
<rect width="4.66268" height="4.33944" rx="2" transform="matrix(0.99976 -0.0308093 -0.00128811 1.00011 100.585 598.653)" fill="#83E1E1" fill-opacity="0.38"/>
<rect width="4.66268" height="4.34046" rx="2" transform="matrix(0.99976 -0.0308136 -0.00128906 1.00011 99.5658 431.216)" fill="#83E1E1" fill-opacity="0.38"/>
<rect width="4.66268" height="4.33978" rx="2" transform="matrix(0.99976 -0.0308104 -0.00128875 1.00011 100.381 565.166)" fill="#83E1E1" fill-opacity="0.38"/>
<rect width="4.66268" height="4.33944" rx="2" transform="matrix(0.99976 -0.0308096 -0.001288 1.00011 99.9731 498.191)" fill="#83E1E1" fill-opacity="0.38"/>
<rect width="4.66253" height="4.34046" rx="2" transform="matrix(0.99976 -0.0308147 -0.001289 1.00011 100.789 632.139)" fill="#83E1E1" fill-opacity="0.38"/>
<rect width="4.66269" height="4.34115" rx="2" transform="matrix(0.99976 -0.0308158 -0.00129026 1.00011 99.464 414.473)" fill="#83E1E1" fill-opacity="0.38"/>
<rect width="4.66268" height="4.34013" rx="2" transform="matrix(0.99976 -0.0308115 -0.0012893 1.00011 100.279 548.42)" fill="#83E1E1" fill-opacity="0.38"/>
<rect width="4.66268" height="4.33978" rx="2" transform="matrix(0.99976 -0.0308107 -0.00128838 1.00011 99.8721 481.448)" fill="#83E1E1" fill-opacity="0.38"/>
<rect width="4.66267" height="4.33774" rx="2" transform="matrix(0.99976 -0.030803 -0.00128548 1.00011 100.686 615.397)" fill="#83E1E1" fill-opacity="0.38"/>
<rect width="4.66268" height="4.34047" rx="2" transform="matrix(0.99976 -0.0308129 -0.00128958 1.00011 99.6677 447.959)" fill="#83E1E1" fill-opacity="0.38"/>
<rect width="4.66268" height="4.33876" rx="2" transform="matrix(0.99976 -0.0308063 -0.00128744 1.00011 100.484 581.909)" fill="#83E1E1" fill-opacity="0.38"/>
<rect width="4.66268" height="4.33945" rx="2" transform="matrix(0.99976 -0.0308089 -0.00128831 1.00011 100.075 514.935)" fill="#83E1E1" fill-opacity="0.38"/>
<rect width="4.66268" height="4.3408" rx="2" transform="matrix(0.99976 -0.0308144 -0.00128989 1.00011 100.891 648.882)" fill="#83E1E1" fill-opacity="0.38"/>
<rect width="4.66267" height="4.34121" rx="2" transform="matrix(0.999759 -0.0308757 -0.001319 1.00011 169.73 396.542)" fill="#83E1E1" fill-opacity="0.38"/>
<rect width="4.66253" height="4.34012" rx="2" transform="matrix(0.99976 -0.0308134 -0.00128864 1.00011 170.545 530.49)" fill="#83E1E1" fill-opacity="0.38"/>
<rect width="4.66268" height="4.34012" rx="2" transform="matrix(0.99976 -0.0308122 -0.00128883 1.00011 170.137 463.516)" fill="#83E1E1" fill-opacity="0.38"/>
<rect width="4.66268" height="4.34046" rx="2" transform="matrix(0.99976 -0.0308139 -0.00128897 1.00011 170.952 597.463)" fill="#83E1E1" fill-opacity="0.38"/>
<rect width="4.66253" height="4.33978" rx="2" transform="matrix(0.99976 -0.0308115 -0.00128849 1.00011 169.933 430.029)" fill="#83E1E1" fill-opacity="0.38"/>
<rect width="4.66269" height="4.34081" rx="2" transform="matrix(0.99976 -0.0308142 -0.00129015 1.00011 170.749 563.977)" fill="#83E1E1" fill-opacity="0.38"/>
<rect width="4.66268" height="4.33877" rx="2" transform="matrix(0.99976 -0.0308061 -0.00128746 1.00011 170.341 497.003)" fill="#83E1E1" fill-opacity="0.38"/>
<rect width="4.66268" height="4.3408" rx="2" transform="matrix(0.99976 -0.0308148 -0.00128976 1.00011 171.156 630.95)" fill="#83E1E1" fill-opacity="0.38"/>
<rect width="4.66253" height="4.34046" rx="2" transform="matrix(0.99976 -0.0308148 -0.00128892 1.00011 169.831 413.284)" fill="#83E1E1" fill-opacity="0.38"/>
<rect width="4.66268" height="4.3391" rx="2" transform="matrix(0.99976 -0.0308086 -0.00128719 1.00011 170.646 547.234)" fill="#83E1E1" fill-opacity="0.38"/>
<rect width="4.66253" height="4.33876" rx="2" transform="matrix(0.99976 -0.0308072 -0.00128722 1.00011 170.239 480.261)" fill="#83E1E1" fill-opacity="0.38"/>
<rect width="4.66268" height="4.33944" rx="2" transform="matrix(0.99976 -0.0308098 -0.00128764 1.00011 171.054 614.207)" fill="#83E1E1" fill-opacity="0.38"/>
<rect width="4.66269" height="4.34115" rx="2" transform="matrix(0.99976 -0.0308153 -0.00129053 1.00011 170.035 446.772)" fill="#83E1E1" fill-opacity="0.38"/>
<rect width="4.66268" height="4.34012" rx="2" transform="matrix(0.99976 -0.030812 -0.00128878 1.00011 170.85 580.72)" fill="#83E1E1" fill-opacity="0.38"/>
<rect width="4.66268" height="4.33978" rx="2" transform="matrix(0.99976 -0.0308112 -0.00128831 1.00011 170.443 513.747)" fill="#83E1E1" fill-opacity="0.38"/>
<rect width="4.66268" height="4.33944" rx="2" transform="matrix(0.99976 -0.0308097 -0.00128771 1.00011 171.259 647.695)" fill="#83E1E1" fill-opacity="0.38"/>
<rect width="4.66268" height="4.34012" rx="2" transform="matrix(0.99976 -0.0308117 -0.00128903 1.00011 116.953 397.432)" fill="#83E1E1" fill-opacity="0.38"/>
<rect width="4.66268" height="4.33978" rx="2" transform="matrix(0.99976 -0.0308108 -0.00128832 1.00011 117.77 531.381)" fill="#83E1E1" fill-opacity="0.38"/>
<rect width="4.66268" height="4.33877" rx="2" transform="matrix(0.99976 -0.0308058 -0.00128747 1.00011 117.361 464.408)" fill="#83E1E1" fill-opacity="0.38"/>
<rect width="4.66254" height="4.34114" rx="2" transform="matrix(0.99976 -0.0308169 -0.00129041 1.00011 118.177 598.354)" fill="#83E1E1" fill-opacity="0.38"/>
<rect width="4.66268" height="4.33944" rx="2" transform="matrix(0.99976 -0.0308102 -0.00128743 1.00011 117.158 430.92)" fill="#83E1E1" fill-opacity="0.38"/>
<rect width="4.66268" height="4.33978" rx="2" transform="matrix(0.99976 -0.0308108 -0.00128821 1.00011 117.973 564.868)" fill="#83E1E1" fill-opacity="0.38"/>
<rect width="4.66268" height="4.34012" rx="2" transform="matrix(0.99976 -0.0308119 -0.00128884 1.00011 117.565 497.894)" fill="#83E1E1" fill-opacity="0.38"/>
<rect width="4.66253" height="4.34046" rx="2" transform="matrix(0.99976 -0.0308146 -0.0012891 1.00011 118.381 631.842)" fill="#83E1E1" fill-opacity="0.38"/>
<rect width="4.66254" height="4.34013" rx="2" transform="matrix(0.99976 -0.0308123 -0.00128924 1.00011 117.056 414.176)" fill="#83E1E1" fill-opacity="0.38"/>
<rect width="4.66268" height="4.33944" rx="2" transform="matrix(0.99976 -0.0308105 -0.00128725 1.00011 117.871 548.125)" fill="#83E1E1" fill-opacity="0.38"/>
<rect width="4.66268" height="4.34047" rx="2" transform="matrix(0.99976 -0.0308128 -0.00128967 1.00011 117.464 481.15)" fill="#83E1E1" fill-opacity="0.38"/>
<rect width="4.66268" height="4.34012" rx="2" transform="matrix(0.99976 -0.0308121 -0.0012889 1.00011 118.279 615.099)" fill="#83E1E1" fill-opacity="0.38"/>
<rect width="4.66268" height="4.33944" rx="2" transform="matrix(0.99976 -0.0308093 -0.00128788 1.00011 117.26 447.664)" fill="#83E1E1" fill-opacity="0.38"/>
<rect width="4.66268" height="4.33876" rx="2" transform="matrix(0.99976 -0.0308068 -0.0012871 1.00011 118.075 581.612)" fill="#83E1E1" fill-opacity="0.38"/>
<rect width="4.66268" height="4.33945" rx="2" transform="matrix(0.99976 -0.0308089 -0.00128831 1.00011 117.667 514.638)" fill="#83E1E1" fill-opacity="0.38"/>
<rect width="4.66268" height="4.34012" rx="2" transform="matrix(0.99976 -0.0308124 -0.00128879 1.00011 118.482 648.586)" fill="#83E1E1" fill-opacity="0.38"/>
<rect width="4.66253" height="4.33944" rx="2" transform="matrix(0.99976 -0.0308101 -0.0012882 1.00011 187.321 396.245)" fill="#83E1E1" fill-opacity="0.38"/>
<rect width="4.66268" height="4.34046" rx="2" transform="matrix(0.99976 -0.030813 -0.00128943 1.00011 188.137 530.192)" fill="#83E1E1" fill-opacity="0.38"/>
<rect width="4.66268" height="4.34046" rx="2" transform="matrix(0.99976 -0.0308132 -0.00128927 1.00011 187.729 463.218)" fill="#83E1E1" fill-opacity="0.38"/>
<rect width="4.66268" height="4.34046" rx="2" transform="matrix(0.99976 -0.0308133 -0.00128939 1.00011 188.544 597.166)" fill="#83E1E1" fill-opacity="0.38"/>
<rect width="4.66268" height="4.33978" rx="2" transform="matrix(0.99976 -0.0308108 -0.00128834 1.00011 187.525 429.731)" fill="#83E1E1" fill-opacity="0.38"/>
<rect width="4.66268" height="4.33842" rx="2" transform="matrix(0.99976 -0.0308058 -0.00128624 1.00011 188.34 563.68)" fill="#83E1E1" fill-opacity="0.38"/>
<rect width="4.66268" height="4.34012" rx="2" transform="matrix(0.99976 -0.030812 -0.001289 1.00011 187.933 496.706)" fill="#83E1E1" fill-opacity="0.38"/>
<rect width="4.66268" height="4.33979" rx="2" transform="matrix(0.99976 -0.0308103 -0.00128863 1.00011 188.748 630.654)" fill="#83E1E1" fill-opacity="0.38"/>
<rect width="4.66268" height="4.33978" rx="2" transform="matrix(0.99976 -0.0308106 -0.00128855 1.00011 187.424 412.988)" fill="#83E1E1" fill-opacity="0.38"/>
<rect width="4.66253" height="4.33978" rx="2" transform="matrix(0.99976 -0.0308114 -0.00128853 1.00011 188.239 546.936)" fill="#83E1E1" fill-opacity="0.38"/>
<rect width="4.66268" height="4.33945" rx="2" transform="matrix(0.99976 -0.0308089 -0.00128817 1.00011 187.831 479.962)" fill="#83E1E1" fill-opacity="0.38"/>
<rect width="4.66253" height="4.33944" rx="2" transform="matrix(0.99976 -0.0308105 -0.00128777 1.00011 188.646 613.91)" fill="#83E1E1" fill-opacity="0.38"/>
<rect width="4.66254" height="4.3408" rx="2" transform="matrix(0.99976 -0.0308158 -0.00128961 1.00011 187.627 446.475)" fill="#83E1E1" fill-opacity="0.38"/>
<rect width="4.66268" height="4.3408" rx="2" transform="matrix(0.99976 -0.0308147 -0.00128989 1.00011 188.442 580.422)" fill="#83E1E1" fill-opacity="0.38"/>
<rect width="4.66268" height="4.33876" rx="2" transform="matrix(0.99976 -0.0308069 -0.00128692 1.00011 188.035 513.449)" fill="#83E1E1" fill-opacity="0.38"/>
<rect width="4.66268" height="4.33944" rx="2" transform="matrix(0.99976 -0.0308098 -0.00128766 1.00011 188.85 647.396)" fill="#83E1E1" fill-opacity="0.38"/>
<g opacity="0.4">
<path d="M-170.45 353.611C-235.565 292.873 -235.912 197.033 -171.28 139.545C-106.648 82.0566 -1.46714 84.6504 63.6482 145.388C128.764 206.127 129.111 301.967 64.4787 359.455C-0.153126 416.943 -105.334 414.35 -170.45 353.611Z" stroke="white"/>
<path d="M-142.49 329.281C-192.422 282.705 -192.714 209.245 -143.198 165.202C-93.6825 121.16 -13.0635 123.171 36.8689 169.747C86.8013 216.323 87.0931 289.783 37.5772 333.826C-11.9386 377.869 -92.5576 375.857 -142.49 329.281Z" stroke="white"/>
<path d="M-115.718 301.698C-149.815 269.894 -150.049 219.776 -116.299 189.757C-82.5498 159.738 -27.5495 161.142 6.54715 192.947C40.6438 224.751 40.8775 274.868 7.12801 304.887C-26.6214 334.907 -81.6218 333.503 -115.718 301.698Z" stroke="white"/>
<ellipse rx="21.7215" ry="22.4394" transform="matrix(-0.749923 0.667034 -0.728749 -0.679761 114.101 237.485)" fill="url(#paint0_linear)"/>
</g>
<defs>
<linearGradient id="paint0_linear" x1="0" y1="0" x2="31.6427" y2="33.0485" gradientUnits="userSpaceOnUse">
<stop offset="0.203125" stop-color="white"/>
<stop offset="0.973958" stop-color="#F8EAFF"/>
</linearGradient>
</defs>
</svg>
