<svg width="1366" height="1090" viewBox="0 0 1366 1090" fill="none" xmlns="http://www.w3.org/2000/svg">
<rect width="3.82425" height="4.75728" rx="1.91212" transform="matrix(0.999804 -0.024148 0.0059437 0.999996 88.583 536.257)" fill="#83E1E1" fill-opacity="0.38"/>
<rect width="3.82425" height="4.75825" rx="1.91212" transform="matrix(0.999804 -0.0241512 0.00594263 0.999996 89.7319 682.2)" fill="#83E1E1" fill-opacity="0.38"/>
<rect width="3.82425" height="4.75752" rx="1.91212" transform="matrix(0.999804 -0.0241498 0.00594362 0.999996 89.1573 609.228)" fill="#83E1E1" fill-opacity="0.38"/>
<rect width="3.82425" height="4.75728" rx="1.91212" transform="matrix(0.999804 -0.0241477 0.00594363 0.999996 90.3065 755.171)" fill="#83E1E1" fill-opacity="0.38"/>
<rect width="3.82425" height="4.75848" rx="1.91212" transform="matrix(0.999804 -0.0241532 0.00594245 0.999996 88.8701 572.741)" fill="#83E1E1" fill-opacity="0.38"/>
<rect width="3.82422" height="4.75777" rx="1.91211" transform="matrix(0.999804 -0.024149 0.00594325 0.999996 90.0194 718.686)" fill="#83E1E1" fill-opacity="0.38"/>
<rect width="3.82425" height="4.75776" rx="1.91212" transform="matrix(0.999804 -0.0241498 0.00594315 0.999996 89.4445 645.714)" fill="#83E1E1" fill-opacity="0.38"/>
<rect width="3.82425" height="4.75872" rx="1.91212" transform="matrix(0.999804 -0.0241537 0.00594186 0.999996 90.5935 791.657)" fill="#83E1E1" fill-opacity="0.38"/>
<rect width="3.82422" height="4.75705" rx="1.91211" transform="matrix(0.999804 -0.0241461 0.00594404 0.999996 88.7264 554.5)" fill="#83E1E1" fill-opacity="0.38"/>
<rect width="3.82422" height="4.75681" rx="1.91211" transform="matrix(0.999804 -0.0241451 0.00594432 0.999996 89.8756 700.443)" fill="#83E1E1" fill-opacity="0.38"/>
<rect width="3.82422" height="4.75872" rx="1.91211" transform="matrix(0.999804 -0.024155 0.00594193 0.999996 89.301 627.471)" fill="#83E1E1" fill-opacity="0.38"/>
<rect width="3.82425" height="4.75824" rx="1.91212" transform="matrix(0.999804 -0.0241536 0.00594264 0.999996 90.4498 773.414)" fill="#83E1E1" fill-opacity="0.38"/>
<rect width="3.82427" height="4.75724" rx="1.91213" transform="matrix(0.999804 -0.0241597 0.0059402 0.999996 89.0137 590.986)" fill="#83E1E1" fill-opacity="0.38"/>
<rect width="3.82425" height="4.75776" rx="1.91212" transform="matrix(0.999804 -0.0241504 0.00594308 0.999996 90.1633 736.928)" fill="#83E1E1" fill-opacity="0.38"/>
<rect width="3.82425" height="4.75585" rx="1.91212" transform="matrix(0.999805 -0.02414 0.00594498 0.999996 89.5883 663.958)" fill="#83E1E1" fill-opacity="0.38"/>
<rect width="3.82425" height="4.75824" rx="1.91212" transform="matrix(0.999804 -0.0241525 0.00594292 0.999996 90.7374 809.899)" fill="#83E1E1" fill-opacity="0.38"/>
<rect width="3.82425" height="4.75752" rx="1.91212" transform="matrix(0.999804 -0.0241499 0.0059436 0.999996 146.567 535.5)" fill="#83E1E1" fill-opacity="0.38"/>
<rect width="3.82425" height="4.75824" rx="1.91212" transform="matrix(0.999804 -0.0241523 0.00594293 0.999996 147.716 681.441)" fill="#83E1E1" fill-opacity="0.38"/>
<rect width="3.82425" height="4.75656" rx="1.91212" transform="matrix(0.999804 -0.0241443 0.00594448 0.999996 147.141 608.472)" fill="#83E1E1" fill-opacity="0.38"/>
<rect width="3.82425" height="4.75776" rx="1.91212" transform="matrix(0.999804 -0.0241501 0.00594303 0.999996 148.29 754.414)" fill="#83E1E1" fill-opacity="0.38"/>
<rect width="3.82422" height="4.75752" rx="1.91211" transform="matrix(0.999804 -0.0241491 0.00594333 0.999996 146.854 571.985)" fill="#83E1E1" fill-opacity="0.38"/>
<rect width="3.82422" height="4.75584" rx="1.91211" transform="matrix(0.999804 -0.0241411 0.00594523 0.999996 148.003 717.929)" fill="#83E1E1" fill-opacity="0.38"/>
<rect width="3.82422" height="4.75728" rx="1.91211" transform="matrix(0.999804 -0.0241475 0.00594333 0.999996 147.428 644.957)" fill="#83E1E1" fill-opacity="0.38"/>
<rect width="3.82422" height="4.75728" rx="1.91211" transform="matrix(0.999804 -0.024148 0.00594359 0.999996 148.578 790.9)" fill="#83E1E1" fill-opacity="0.38"/>
<rect width="3.82422" height="4.75657" rx="1.91211" transform="matrix(0.999805 -0.0241429 0.005944 0.999996 146.711 553.743)" fill="#83E1E1" fill-opacity="0.38"/>
<rect width="3.82425" height="4.75873" rx="1.91212" transform="matrix(0.999804 -0.0241535 0.00594193 0.999996 147.859 699.685)" fill="#83E1E1" fill-opacity="0.38"/>
<rect width="3.82425" height="4.7592" rx="1.91212" transform="matrix(0.999804 -0.0241575 0.0059419 0.999996 147.285 626.714)" fill="#83E1E1" fill-opacity="0.38"/>
<rect width="3.82422" height="4.75824" rx="1.91211" transform="matrix(0.999804 -0.0241527 0.00594266 0.999996 148.434 772.657)" fill="#83E1E1" fill-opacity="0.38"/>
<rect width="3.82425" height="4.75776" rx="1.91212" transform="matrix(0.999804 -0.0241502 0.00594302 0.999996 146.998 590.228)" fill="#83E1E1" fill-opacity="0.38"/>
<rect width="3.82425" height="4.75776" rx="1.91212" transform="matrix(0.999804 -0.0241501 0.00594301 0.999996 148.147 736.171)" fill="#83E1E1" fill-opacity="0.38"/>
<rect width="3.82425" height="4.75705" rx="1.91212" transform="matrix(0.999805 -0.0241457 0.00594405 0.999996 147.572 663.2)" fill="#83E1E1" fill-opacity="0.38"/>
<rect width="3.82425" height="4.75633" rx="1.91213" transform="matrix(0.999804 -0.0241424 0.00594425 0.999996 148.721 809.144)" fill="#83E1E1" fill-opacity="0.38"/>
<rect width="3.82422" height="4.75849" rx="1.91211" transform="matrix(0.999804 -0.0241526 0.00594203 0.999996 103.079 536.067)" fill="#83E1E1" fill-opacity="0.38"/>
<rect width="3.82425" height="4.75776" rx="1.91212" transform="matrix(0.999804 -0.0241498 0.005943 0.999996 104.228 682.011)" fill="#83E1E1" fill-opacity="0.38"/>
<rect width="3.82425" height="4.75704" rx="1.91212" transform="matrix(0.999804 -0.0241472 0.00594408 0.999996 103.653 609.039)" fill="#83E1E1" fill-opacity="0.38"/>
<rect width="3.82425" height="4.75728" rx="1.91212" transform="matrix(0.999805 -0.024148 0.00594379 0.999996 104.802 754.983)" fill="#83E1E1" fill-opacity="0.38"/>
<rect width="3.82425" height="4.75752" rx="1.91212" transform="matrix(0.999804 -0.0241484 0.00594339 0.999996 103.366 572.553)" fill="#83E1E1" fill-opacity="0.38"/>
<rect width="3.82425" height="4.75728" rx="1.91212" transform="matrix(0.999804 -0.0241493 0.00594378 0.999996 104.515 718.497)" fill="#83E1E1" fill-opacity="0.38"/>
<rect width="3.82422" height="4.75776" rx="1.91211" transform="matrix(0.999804 -0.0241504 0.0059432 0.999996 103.94 645.525)" fill="#83E1E1" fill-opacity="0.38"/>
<rect width="3.82425" height="4.75824" rx="1.91212" transform="matrix(0.999804 -0.0241521 0.00594258 0.999996 105.089 791.466)" fill="#83E1E1" fill-opacity="0.38"/>
<rect width="3.82425" height="4.75776" rx="1.91212" transform="matrix(0.999804 -0.0241501 0.00594319 0.999996 103.222 554.309)" fill="#83E1E1" fill-opacity="0.38"/>
<rect width="3.82425" height="4.75728" rx="1.91212" transform="matrix(0.999804 -0.0241488 0.00594383 0.999996 104.371 700.253)" fill="#83E1E1" fill-opacity="0.38"/>
<rect width="3.82425" height="4.75704" rx="1.91212" transform="matrix(0.999804 -0.0241466 0.00594429 0.999996 103.797 627.282)" fill="#83E1E1" fill-opacity="0.38"/>
<rect width="3.82422" height="4.75584" rx="1.91211" transform="matrix(0.999805 -0.0241417 0.00594545 0.999996 104.946 773.226)" fill="#83E1E1" fill-opacity="0.38"/>
<rect width="3.82427" height="4.75675" rx="1.91213" transform="matrix(0.999804 -0.024158 0.00594036 0.999996 103.509 590.797)" fill="#83E1E1" fill-opacity="0.38"/>
<rect width="3.82425" height="4.75728" rx="1.91212" transform="matrix(0.999804 -0.024148 0.0059434 0.999996 104.658 736.739)" fill="#83E1E1" fill-opacity="0.38"/>
<rect width="3.82425" height="4.75705" rx="1.91213" transform="matrix(0.999804 -0.0241456 0.00594351 0.999996 104.084 663.768)" fill="#83E1E1" fill-opacity="0.38"/>
<rect width="3.82425" height="4.7592" rx="1.91212" transform="matrix(0.999804 -0.0241574 0.00594183 0.999996 105.233 809.709)" fill="#83E1E1" fill-opacity="0.38"/>
<rect width="3.8242" height="4.75746" rx="1.9121" transform="matrix(0.999803 -0.0242277 0.00592158 0.999996 161.062 535.31)" fill="#83E1E1" fill-opacity="0.38"/>
<rect width="3.82422" height="4.75776" rx="1.91211" transform="matrix(0.999804 -0.0241506 0.00594343 0.999996 162.212 681.253)" fill="#83E1E1" fill-opacity="0.38"/>
<rect width="3.82425" height="4.75704" rx="1.91212" transform="matrix(0.999804 -0.0241476 0.00594408 0.999996 161.637 608.282)" fill="#83E1E1" fill-opacity="0.38"/>
<rect width="3.82425" height="4.75777" rx="1.91212" transform="matrix(0.999804 -0.0241488 0.00594301 0.999996 162.787 754.225)" fill="#83E1E1" fill-opacity="0.38"/>
<rect width="3.82422" height="4.758" rx="1.91211" transform="matrix(0.999804 -0.0241513 0.00594295 0.999996 161.349 571.796)" fill="#83E1E1" fill-opacity="0.38"/>
<rect width="3.82425" height="4.75728" rx="1.91212" transform="matrix(0.999804 -0.0241476 0.00594363 0.999996 162.499 717.739)" fill="#83E1E1" fill-opacity="0.38"/>
<rect width="3.82425" height="4.758" rx="1.91212" transform="matrix(0.999804 -0.0241515 0.00594292 0.999996 161.924 644.768)" fill="#83E1E1" fill-opacity="0.38"/>
<rect width="3.82422" height="4.75681" rx="1.91211" transform="matrix(0.999804 -0.0241448 0.00594413 0.999996 163.074 790.712)" fill="#83E1E1" fill-opacity="0.38"/>
<rect width="3.82425" height="4.75848" rx="1.91212" transform="matrix(0.999804 -0.0241529 0.00594218 0.999996 161.207 553.553)" fill="#83E1E1" fill-opacity="0.38"/>
<rect width="3.82422" height="4.75776" rx="1.91211" transform="matrix(0.999804 -0.02415 0.00594269 0.999996 162.355 699.496)" fill="#83E1E1" fill-opacity="0.38"/>
<rect width="3.82422" height="4.75729" rx="1.91211" transform="matrix(0.999804 -0.0241468 0.00594309 0.999996 161.781 626.525)" fill="#83E1E1" fill-opacity="0.38"/>
<rect width="3.82425" height="4.75681" rx="1.91213" transform="matrix(0.999804 -0.0241443 0.00594384 0.999996 162.93 772.468)" fill="#83E1E1" fill-opacity="0.38"/>
<rect width="3.82422" height="4.75848" rx="1.91211" transform="matrix(0.999804 -0.0241533 0.00594245 0.999996 161.494 590.038)" fill="#83E1E1" fill-opacity="0.38"/>
<rect width="3.82425" height="4.7568" rx="1.91212" transform="matrix(0.999804 -0.0241457 0.005944 0.999996 162.643 735.982)" fill="#83E1E1" fill-opacity="0.38"/>
<rect width="3.82422" height="4.75633" rx="1.91211" transform="matrix(0.999805 -0.0241429 0.00594443 0.999996 162.068 663.011)" fill="#83E1E1" fill-opacity="0.38"/>
<rect width="3.82422" height="4.75872" rx="1.91211" transform="matrix(0.999804 -0.0241545 0.00594219 0.999996 163.217 808.953)" fill="#83E1E1" fill-opacity="0.38"/>
<rect width="3.82425" height="4.75752" rx="1.91212" transform="matrix(0.999804 -0.0241486 0.00594321 0.999996 117.575 535.878)" fill="#83E1E1" fill-opacity="0.38"/>
<rect width="3.82425" height="4.75776" rx="1.91212" transform="matrix(0.999804 -0.0241514 0.00594335 0.999996 118.724 681.821)" fill="#83E1E1" fill-opacity="0.38"/>
<rect width="3.82424" height="4.7592" rx="1.91212" transform="matrix(0.999804 -0.0241573 0.00594202 0.999996 118.15 608.849)" fill="#83E1E1" fill-opacity="0.38"/>
<rect width="3.82422" height="4.75585" rx="1.91211" transform="matrix(0.999805 -0.0241409 0.00594533 0.999996 119.299 754.794)" fill="#83E1E1" fill-opacity="0.38"/>
<rect width="3.82425" height="4.75632" rx="1.91212" transform="matrix(0.999805 -0.0241437 0.00594483 0.999996 117.863 572.365)" fill="#83E1E1" fill-opacity="0.38"/>
<rect width="3.82422" height="4.75872" rx="1.91211" transform="matrix(0.999804 -0.0241554 0.00594232 0.999996 119.011 718.306)" fill="#83E1E1" fill-opacity="0.38"/>
<rect width="3.82422" height="4.75776" rx="1.91211" transform="matrix(0.999804 -0.0241509 0.00594319 0.999996 118.437 645.336)" fill="#83E1E1" fill-opacity="0.38"/>
<rect width="3.82422" height="4.75776" rx="1.91211" transform="matrix(0.999804 -0.0241511 0.00594346 0.999996 119.586 791.279)" fill="#83E1E1" fill-opacity="0.38"/>
<rect width="3.82425" height="4.75776" rx="1.91212" transform="matrix(0.999804 -0.0241494 0.00594293 0.999996 117.719 554.121)" fill="#83E1E1" fill-opacity="0.38"/>
<rect width="3.82424" height="4.75872" rx="1.91212" transform="matrix(0.999804 -0.0241558 0.00594275 0.999996 118.868 700.063)" fill="#83E1E1" fill-opacity="0.38"/>
<rect width="3.82425" height="4.75776" rx="1.91212" transform="matrix(0.999804 -0.0241515 0.00594352 0.999996 118.293 627.092)" fill="#83E1E1" fill-opacity="0.38"/>
<rect width="3.82425" height="4.75776" rx="1.91212" transform="matrix(0.999804 -0.0241498 0.00594329 0.999996 119.442 773.037)" fill="#83E1E1" fill-opacity="0.38"/>
<rect width="3.82421" height="4.75674" rx="1.9121" transform="matrix(0.999804 -0.0241609 0.00594025 0.999996 118.006 590.608)" fill="#83E1E1" fill-opacity="0.38"/>
<rect width="3.82422" height="4.75585" rx="1.91211" transform="matrix(0.999805 -0.0241398 0.00594488 0.999996 119.155 736.551)" fill="#83E1E1" fill-opacity="0.38"/>
<rect width="3.82422" height="4.75776" rx="1.91211" transform="matrix(0.999804 -0.0241512 0.00594325 0.999996 118.581 663.578)" fill="#83E1E1" fill-opacity="0.38"/>
<rect width="3.82425" height="4.75777" rx="1.91212" transform="matrix(0.999804 -0.0241489 0.00594282 0.999996 119.73 809.521)" fill="#83E1E1" fill-opacity="0.38"/>
<rect width="3.82427" height="4.75698" rx="1.91213" transform="matrix(0.999803 -0.0242256 0.00592203 0.999996 175.558 535.123)" fill="#83E1E1" fill-opacity="0.38"/>
<rect width="3.82425" height="4.75776" rx="1.91212" transform="matrix(0.999804 -0.02415 0.00594342 0.999996 176.708 681.063)" fill="#83E1E1" fill-opacity="0.38"/>
<rect width="3.82425" height="4.75584" rx="1.91212" transform="matrix(0.999805 -0.024142 0.00594578 0.999996 176.133 608.094)" fill="#83E1E1" fill-opacity="0.38"/>
<rect width="3.82425" height="4.7592" rx="1.91212" transform="matrix(0.999804 -0.0241574 0.00594172 0.999996 177.282 754.036)" fill="#83E1E1" fill-opacity="0.38"/>
<rect width="3.82422" height="4.75681" rx="1.91211" transform="matrix(0.999804 -0.0241446 0.00594382 0.999996 175.846 571.607)" fill="#83E1E1" fill-opacity="0.38"/>
<rect width="3.82425" height="4.75681" rx="1.91212" transform="matrix(0.999804 -0.0241446 0.00594414 0.999996 176.995 717.55)" fill="#83E1E1" fill-opacity="0.38"/>
<rect width="3.82425" height="4.75776" rx="1.91212" transform="matrix(0.999804 -0.0241509 0.00594325 0.999996 176.42 644.578)" fill="#83E1E1" fill-opacity="0.38"/>
<rect width="3.82422" height="4.75729" rx="1.91211" transform="matrix(0.999804 -0.0241469 0.00594353 0.999996 177.569 790.522)" fill="#83E1E1" fill-opacity="0.38"/>
<rect width="3.82422" height="4.75657" rx="1.91211" transform="matrix(0.999804 -0.0241441 0.00594421 0.999996 175.702 553.364)" fill="#83E1E1" fill-opacity="0.38"/>
<rect width="3.82425" height="4.75489" rx="1.91212" transform="matrix(0.999805 -0.0241361 0.00594623 0.999996 176.851 699.309)" fill="#83E1E1" fill-opacity="0.38"/>
<rect width="3.82425" height="4.75776" rx="1.91212" transform="matrix(0.999804 -0.0241507 0.0059432 0.999996 176.276 626.336)" fill="#83E1E1" fill-opacity="0.38"/>
<rect width="3.82422" height="4.75776" rx="1.91211" transform="matrix(0.999804 -0.0241495 0.00594324 0.999996 177.426 772.278)" fill="#83E1E1" fill-opacity="0.38"/>
<rect width="3.82422" height="4.75728" rx="1.91211" transform="matrix(0.999804 -0.0241475 0.00594352 0.999996 175.99 589.85)" fill="#83E1E1" fill-opacity="0.38"/>
<rect width="3.82425" height="4.75728" rx="1.91212" transform="matrix(0.999804 -0.0241483 0.00594373 0.999996 177.138 735.793)" fill="#83E1E1" fill-opacity="0.38"/>
<rect width="3.82425" height="4.75848" rx="1.91212" transform="matrix(0.999804 -0.0241538 0.0059427 0.999996 176.564 662.821)" fill="#83E1E1" fill-opacity="0.38"/>
<rect width="3.82422" height="4.75776" rx="1.91211" transform="matrix(0.999804 -0.0241507 0.00594325 0.999996 177.713 808.764)" fill="#83E1E1" fill-opacity="0.38"/>
<rect width="3.82424" height="4.75872" rx="1.91212" transform="matrix(0.999804 -0.0241557 0.00594258 0.999996 132.071 535.689)" fill="#83E1E1" fill-opacity="0.38"/>
<rect width="3.82425" height="4.75777" rx="1.91212" transform="matrix(0.999804 -0.024149 0.00594299 0.999996 133.22 681.632)" fill="#83E1E1" fill-opacity="0.38"/>
<rect width="3.82425" height="4.75824" rx="1.91212" transform="matrix(0.999804 -0.0241532 0.00594264 0.999996 132.645 608.66)" fill="#83E1E1" fill-opacity="0.38"/>
<rect width="3.82425" height="4.75729" rx="1.91213" transform="matrix(0.999804 -0.0241467 0.00594325 0.999996 133.794 754.604)" fill="#83E1E1" fill-opacity="0.38"/>
<rect width="3.82425" height="4.75776" rx="1.91212" transform="matrix(0.999804 -0.0241504 0.00594332 0.999996 132.358 572.174)" fill="#83E1E1" fill-opacity="0.38"/>
<rect width="3.82425" height="4.75584" rx="1.91212" transform="matrix(0.999804 -0.0241419 0.00594541 0.999996 133.507 718.119)" fill="#83E1E1" fill-opacity="0.38"/>
<rect width="3.82425" height="4.75656" rx="1.91212" transform="matrix(0.999804 -0.0241445 0.0059443 0.999996 132.932 645.146)" fill="#83E1E1" fill-opacity="0.38"/>
<rect width="3.82425" height="4.75776" rx="1.91212" transform="matrix(0.999804 -0.0241504 0.00594308 0.999996 134.082 791.091)" fill="#83E1E1" fill-opacity="0.38"/>
<rect width="3.82425" height="4.75776" rx="1.91212" transform="matrix(0.999804 -0.0241502 0.00594321 0.999996 132.214 553.932)" fill="#83E1E1" fill-opacity="0.38"/>
<rect width="3.82422" height="4.75632" rx="1.91211" transform="matrix(0.999804 -0.0241445 0.00594479 0.999996 133.363 699.876)" fill="#83E1E1" fill-opacity="0.38"/>
<rect width="3.82425" height="4.75776" rx="1.91212" transform="matrix(0.999804 -0.0241498 0.00594311 0.999996 132.789 626.903)" fill="#83E1E1" fill-opacity="0.38"/>
<rect width="3.82425" height="4.75728" rx="1.91212" transform="matrix(0.999804 -0.0241479 0.00594354 0.999996 133.938 772.846)" fill="#83E1E1" fill-opacity="0.38"/>
<rect width="3.82427" height="4.75771" rx="1.91213" transform="matrix(0.999804 -0.0241628 0.00593942 0.999996 132.502 590.418)" fill="#83E1E1" fill-opacity="0.38"/>
<rect width="3.82425" height="4.75489" rx="1.91212" transform="matrix(0.999805 -0.0241361 0.00594624 0.999996 133.65 736.361)" fill="#83E1E1" fill-opacity="0.38"/>
<rect width="3.82425" height="4.75752" rx="1.91212" transform="matrix(0.999804 -0.0241489 0.00594332 0.999996 133.076 663.389)" fill="#83E1E1" fill-opacity="0.38"/>
<rect width="3.82425" height="4.75872" rx="1.91212" transform="matrix(0.999804 -0.0241543 0.00594207 0.999996 134.226 809.332)" fill="#83E1E1" fill-opacity="0.38"/>
<rect width="3.82425" height="4.75776" rx="1.91212" transform="matrix(0.999805 -0.0241504 0.00594318 0.999996 190.054 534.932)" fill="#83E1E1" fill-opacity="0.38"/>
<rect width="3.82425" height="4.75585" rx="1.91212" transform="matrix(0.999805 -0.0241402 0.0059451 0.999996 191.203 680.876)" fill="#83E1E1" fill-opacity="0.38"/>
<rect width="3.82425" height="4.75753" rx="1.91212" transform="matrix(0.999804 -0.0241477 0.00594323 0.999996 190.629 607.903)" fill="#83E1E1" fill-opacity="0.38"/>
<rect width="3.82425" height="4.7568" rx="1.91212" transform="matrix(0.999804 -0.0241463 0.00594417 0.999996 191.778 753.847)" fill="#83E1E1" fill-opacity="0.38"/>
<rect width="3.82425" height="4.75801" rx="1.91212" transform="matrix(0.999804 -0.0241502 0.00594262 0.999996 190.341 571.417)" fill="#83E1E1" fill-opacity="0.38"/>
<rect width="3.82425" height="4.75825" rx="1.91213" transform="matrix(0.999804 -0.0241512 0.00594207 0.999996 191.491 717.36)" fill="#83E1E1" fill-opacity="0.38"/>
<rect width="3.82425" height="4.75656" rx="1.91212" transform="matrix(0.999804 -0.0241441 0.00594443 0.999996 190.916 644.39)" fill="#83E1E1" fill-opacity="0.38"/>
<rect width="3.82425" height="4.7592" rx="1.91212" transform="matrix(0.999804 -0.024158 0.00594148 0.999996 192.065 790.331)" fill="#83E1E1" fill-opacity="0.38"/>
<rect width="3.82425" height="4.75776" rx="1.91212" transform="matrix(0.999804 -0.02415 0.00594338 0.999996 190.198 553.173)" fill="#83E1E1" fill-opacity="0.38"/>
<rect width="3.82422" height="4.75824" rx="1.91211" transform="matrix(0.999804 -0.0241526 0.00594268 0.999996 191.347 699.117)" fill="#83E1E1" fill-opacity="0.38"/>
<rect width="3.82425" height="4.75704" rx="1.91212" transform="matrix(0.999804 -0.0241462 0.00594396 0.999996 190.772 626.146)" fill="#83E1E1" fill-opacity="0.38"/>
<rect width="3.82425" height="4.75824" rx="1.91212" transform="matrix(0.999804 -0.0241523 0.0059428 0.999996 191.922 772.089)" fill="#83E1E1" fill-opacity="0.38"/>
<rect width="3.82422" height="4.758" rx="1.91211" transform="matrix(0.999804 -0.0241509 0.00594277 0.999996 190.485 589.661)" fill="#83E1E1" fill-opacity="0.38"/>
<rect width="3.82422" height="4.7568" rx="1.91211" transform="matrix(0.999804 -0.0241455 0.00594398 0.999996 191.634 735.603)" fill="#83E1E1" fill-opacity="0.38"/>
<rect width="3.82425" height="4.75704" rx="1.91212" transform="matrix(0.999804 -0.0241461 0.00594387 0.999996 191.06 662.632)" fill="#83E1E1" fill-opacity="0.38"/>
<rect width="3.82422" height="4.75584" rx="1.91211" transform="matrix(0.999805 -0.0241426 0.00594541 0.999996 192.209 808.575)" fill="#83E1E1" fill-opacity="0.38"/>
<rect width="3.82425" height="4.75777" rx="1.91212" transform="matrix(0.999804 -0.0241491 0.00594308 0.999996 31.3623 537.006)" fill="#83E1E1" fill-opacity="0.38"/>
<rect width="3.82425" height="4.75824" rx="1.91212" transform="matrix(0.999804 -0.0241523 0.00594249 0.999996 32.5114 682.948)" fill="#83E1E1" fill-opacity="0.38"/>
<rect width="3.82425" height="4.7592" rx="1.91212" transform="matrix(0.999804 -0.024157 0.00594171 0.999996 31.9364 609.976)" fill="#83E1E1" fill-opacity="0.38"/>
<rect width="3.82425" height="4.75681" rx="1.91212" transform="matrix(0.999804 -0.0241447 0.00594402 0.999996 33.0857 755.92)" fill="#83E1E1" fill-opacity="0.38"/>
<rect width="3.82422" height="4.75824" rx="1.91211" transform="matrix(0.999804 -0.0241525 0.00594272 0.999996 31.6489 573.491)" fill="#83E1E1" fill-opacity="0.38"/>
<rect width="3.82422" height="4.75728" rx="1.91211" transform="matrix(0.999804 -0.0241487 0.00594378 0.999996 32.7987 719.435)" fill="#83E1E1" fill-opacity="0.38"/>
<rect width="3.82422" height="4.75777" rx="1.91211" transform="matrix(0.999804 -0.0241493 0.00594278 0.999996 32.2234 646.463)" fill="#83E1E1" fill-opacity="0.38"/>
<rect width="3.82422" height="4.75632" rx="1.91211" transform="matrix(0.999805 -0.0241437 0.00594448 0.999996 33.3732 792.407)" fill="#83E1E1" fill-opacity="0.38"/>
<rect width="3.82425" height="4.75776" rx="1.91212" transform="matrix(0.999804 -0.0241504 0.00594321 0.999996 31.5061 555.248)" fill="#83E1E1" fill-opacity="0.38"/>
<rect width="3.82422" height="4.75872" rx="1.91211" transform="matrix(0.999804 -0.0241554 0.00594227 0.999996 32.6548 701.19)" fill="#83E1E1" fill-opacity="0.38"/>
<rect width="3.82425" height="4.75824" rx="1.91212" transform="matrix(0.999804 -0.0241522 0.00594255 0.999996 32.0807 628.22)" fill="#83E1E1" fill-opacity="0.38"/>
<rect width="3.82425" height="4.75633" rx="1.91213" transform="matrix(0.999804 -0.0241421 0.00594442 0.999996 33.2289 774.163)" fill="#83E1E1" fill-opacity="0.38"/>
<rect width="3.82422" height="4.75704" rx="1.91211" transform="matrix(0.999804 -0.0241472 0.00594398 0.999996 31.7935 591.734)" fill="#83E1E1" fill-opacity="0.38"/>
<rect width="3.82425" height="4.75536" rx="1.91212" transform="matrix(0.999805 -0.0241392 0.00594592 0.999996 32.9419 737.679)" fill="#83E1E1" fill-opacity="0.38"/>
<rect width="3.82425" height="4.75752" rx="1.91212" transform="matrix(0.999804 -0.0241486 0.00594312 0.999996 32.3673 664.706)" fill="#83E1E1" fill-opacity="0.38"/>
<rect width="3.82422" height="4.75728" rx="1.91211" transform="matrix(0.999804 -0.0241484 0.00594385 0.999996 33.5168 810.648)" fill="#83E1E1" fill-opacity="0.38"/>
<rect width="3.82426" height="4.75819" rx="1.91213" transform="matrix(0.999803 -0.0242301 0.00592117 0.999996 45.8582 536.816)" fill="#83E1E1" fill-opacity="0.38"/>
<rect width="3.82422" height="4.75824" rx="1.91211" transform="matrix(0.999804 -0.0241517 0.00594284 0.999996 47.007 682.759)" fill="#83E1E1" fill-opacity="0.38"/>
<rect width="3.82425" height="4.7568" rx="1.91212" transform="matrix(0.999804 -0.0241454 0.00594418 0.999996 46.4329 609.788)" fill="#83E1E1" fill-opacity="0.38"/>
<rect width="3.82422" height="4.75585" rx="1.91211" transform="matrix(0.999805 -0.0241402 0.00594503 0.999996 47.5815 755.73)" fill="#83E1E1" fill-opacity="0.38"/>
<rect width="3.82423" height="4.75824" rx="1.91212" transform="matrix(0.999804 -0.0241521 0.00594244 0.999996 46.1449 573.302)" fill="#83E1E1" fill-opacity="0.38"/>
<rect width="3.82422" height="4.75633" rx="1.91211" transform="matrix(0.999805 -0.0241426 0.00594428 0.999996 47.2944 719.246)" fill="#83E1E1" fill-opacity="0.38"/>
<rect width="3.82425" height="4.75704" rx="1.91212" transform="matrix(0.999804 -0.0241466 0.00594394 0.999996 46.7195 646.274)" fill="#83E1E1" fill-opacity="0.38"/>
<rect width="3.82425" height="4.75632" rx="1.91212" transform="matrix(0.999805 -0.0241429 0.00594468 0.999996 47.8685 792.217)" fill="#83E1E1" fill-opacity="0.38"/>
<rect width="3.82425" height="4.75776" rx="1.91212" transform="matrix(0.999804 -0.0241494 0.00594298 0.999996 46.002 555.059)" fill="#83E1E1" fill-opacity="0.38"/>
<rect width="3.82422" height="4.7592" rx="1.91211" transform="matrix(0.999804 -0.0241568 0.00594172 0.999996 47.1506 701.001)" fill="#83E1E1" fill-opacity="0.38"/>
<rect width="3.82425" height="4.75489" rx="1.91212" transform="matrix(0.999804 -0.0241357 0.0059462 0.999996 46.5764 628.032)" fill="#83E1E1" fill-opacity="0.38"/>
<rect width="3.82425" height="4.7592" rx="1.91212" transform="matrix(0.999804 -0.0241575 0.00594187 0.999996 47.725 773.973)" fill="#83E1E1" fill-opacity="0.38"/>
<rect width="3.82425" height="4.75584" rx="1.91212" transform="matrix(0.999805 -0.024141 0.00594535 0.999996 46.2889 591.546)" fill="#83E1E1" fill-opacity="0.38"/>
<rect width="3.82422" height="4.7568" rx="1.91211" transform="matrix(0.999804 -0.0241458 0.00594419 0.999996 47.4384 737.487)" fill="#83E1E1" fill-opacity="0.38"/>
<rect width="3.82425" height="4.758" rx="1.91212" transform="matrix(0.999804 -0.0241516 0.00594319 0.999996 46.8635 664.516)" fill="#83E1E1" fill-opacity="0.38"/>
<rect width="3.82423" height="4.75632" rx="1.91212" transform="matrix(0.999804 -0.0241437 0.0059447 0.999996 48.0125 810.46)" fill="#83E1E1" fill-opacity="0.38"/>
<rect width="3.82425" height="4.758" rx="1.91212" transform="matrix(0.999804 -0.0241509 0.00594267 0.999996 2.37048 537.384)" fill="#83E1E1" fill-opacity="0.38"/>
<rect width="3.82422" height="4.75776" rx="1.91211" transform="matrix(0.999804 -0.0241496 0.00594322 0.999996 3.51917 683.327)" fill="#83E1E1" fill-opacity="0.38"/>
<rect width="3.82425" height="4.75656" rx="1.91212" transform="matrix(0.999804 -0.0241445 0.00594459 0.999996 2.94495 610.356)" fill="#83E1E1" fill-opacity="0.38"/>
<rect width="3.82422" height="4.75633" rx="1.91211" transform="matrix(0.999805 -0.0241421 0.00594418 0.999996 4.09375 756.3)" fill="#83E1E1" fill-opacity="0.38"/>
<rect width="3.82424" height="4.75872" rx="1.91212" transform="matrix(0.999804 -0.0241557 0.00594265 0.999996 2.65747 573.869)" fill="#83E1E1" fill-opacity="0.38"/>
<rect width="3.82425" height="4.75728" rx="1.91212" transform="matrix(0.999804 -0.024148 0.00594382 0.999996 3.8064 719.813)" fill="#83E1E1" fill-opacity="0.38"/>
<rect width="3.82425" height="4.75752" rx="1.91212" transform="matrix(0.999804 -0.0241498 0.00594344 0.999996 3.23181 646.842)" fill="#83E1E1" fill-opacity="0.38"/>
<rect width="3.82425" height="4.75728" rx="1.91212" transform="matrix(0.999804 -0.0241472 0.00594377 0.999996 4.38098 792.785)" fill="#83E1E1" fill-opacity="0.38"/>
<rect width="3.82424" height="4.76016" rx="1.91212" transform="matrix(0.999804 -0.0241624 0.00594099 0.999996 2.51416 555.626)" fill="#83E1E1" fill-opacity="0.38"/>
<rect width="3.82422" height="4.75776" rx="1.91211" transform="matrix(0.999804 -0.0241497 0.00594297 0.999996 3.66296 701.569)" fill="#83E1E1" fill-opacity="0.38"/>
<rect width="3.82425" height="4.75656" rx="1.91212" transform="matrix(0.999804 -0.0241441 0.00594464 0.999996 3.08887 628.6)" fill="#83E1E1" fill-opacity="0.38"/>
<rect width="3.82425" height="4.75584" rx="1.91212" transform="matrix(0.999804 -0.0241422 0.00594533 0.999996 4.23706 774.542)" fill="#83E1E1" fill-opacity="0.38"/>
<rect width="3.82425" height="4.75776" rx="1.91212" transform="matrix(0.999804 -0.0241495 0.00594326 0.999996 2.80115 592.112)" fill="#83E1E1" fill-opacity="0.38"/>
<rect width="3.82425" height="4.75537" rx="1.91213" transform="matrix(0.999804 -0.0241377 0.00594543 0.999996 3.95068 738.057)" fill="#83E1E1" fill-opacity="0.38"/>
<rect width="3.82425" height="4.75704" rx="1.91212" transform="matrix(0.999804 -0.0241467 0.00594396 0.999996 3.37549 665.085)" fill="#83E1E1" fill-opacity="0.38"/>
<rect width="3.82425" height="4.75824" rx="1.91212" transform="matrix(0.999804 -0.0241519 0.00594276 0.999996 4.52478 811.026)" fill="#83E1E1" fill-opacity="0.38"/>
<rect width="3.82423" height="4.75914" rx="1.91212" transform="matrix(0.999803 -0.0242355 0.00592019 0.999996 60.3542 536.627)" fill="#83E1E1" fill-opacity="0.38"/>
<rect width="3.82425" height="4.75776" rx="1.91212" transform="matrix(0.999804 -0.0241503 0.00594324 0.999996 61.5032 682.57)" fill="#83E1E1" fill-opacity="0.38"/>
<rect width="3.82425" height="4.758" rx="1.91212" transform="matrix(0.999804 -0.0241516 0.00594303 0.999996 60.9286 609.599)" fill="#83E1E1" fill-opacity="0.38"/>
<rect width="3.82425" height="4.75824" rx="1.91212" transform="matrix(0.999804 -0.0241525 0.00594272 0.999996 62.0775 755.541)" fill="#83E1E1" fill-opacity="0.38"/>
<rect width="3.82426" height="4.75776" rx="1.91213" transform="matrix(0.999804 -0.0241499 0.00594308 0.999996 60.6411 573.113)" fill="#83E1E1" fill-opacity="0.38"/>
<rect width="3.82425" height="4.75824" rx="1.91212" transform="matrix(0.999804 -0.0241515 0.0059425 0.999996 61.7902 719.056)" fill="#83E1E1" fill-opacity="0.38"/>
<rect width="3.82423" height="4.75728" rx="1.91212" transform="matrix(0.999804 -0.0241479 0.00594331 0.999996 61.2157 646.084)" fill="#83E1E1" fill-opacity="0.38"/>
<rect width="3.82425" height="4.75872" rx="1.91212" transform="matrix(0.999804 -0.0241553 0.00594254 0.999996 62.3645 792.026)" fill="#83E1E1" fill-opacity="0.38"/>
<rect width="3.82425" height="4.75704" rx="1.91212" transform="matrix(0.999804 -0.0241469 0.00594448 0.999996 60.4977 554.869)" fill="#83E1E1" fill-opacity="0.38"/>
<rect width="3.82423" height="4.75585" rx="1.91212" transform="matrix(0.999805 -0.0241406 0.00594507 0.999996 61.6466 700.814)" fill="#83E1E1" fill-opacity="0.38"/>
<rect width="3.82422" height="4.75776" rx="1.91211" transform="matrix(0.999804 -0.0241512 0.00594304 0.999996 61.0723 627.842)" fill="#83E1E1" fill-opacity="0.38"/>
<rect width="3.82425" height="4.75776" rx="1.91212" transform="matrix(0.999805 -0.024151 0.00594331 0.999996 62.2209 773.783)" fill="#83E1E1" fill-opacity="0.38"/>
<rect width="3.82423" height="4.7604" rx="1.91212" transform="matrix(0.999804 -0.0241626 0.00594029 0.999996 60.7849 591.355)" fill="#83E1E1" fill-opacity="0.38"/>
<rect width="3.82426" height="4.75872" rx="1.91213" transform="matrix(0.999804 -0.0241553 0.0059424 0.999996 61.9338 737.298)" fill="#83E1E1" fill-opacity="0.38"/>
<rect width="3.82426" height="4.75704" rx="1.91213" transform="matrix(0.999804 -0.0241468 0.005944 0.999996 61.3593 664.328)" fill="#83E1E1" fill-opacity="0.38"/>
<rect width="3.82425" height="4.75776" rx="1.91212" transform="matrix(0.999804 -0.0241515 0.00594355 0.999996 62.5089 810.271)" fill="#83E1E1" fill-opacity="0.38"/>
<rect width="3.82423" height="4.75752" rx="1.91212" transform="matrix(0.999804 -0.0241487 0.00594348 0.999996 16.8658 537.194)" fill="#83E1E1" fill-opacity="0.38"/>
<rect width="3.82425" height="4.7568" rx="1.91212" transform="matrix(0.999804 -0.0241451 0.00594423 0.999996 18.0156 683.138)" fill="#83E1E1" fill-opacity="0.38"/>
<rect width="3.82422" height="4.75705" rx="1.91211" transform="matrix(0.999804 -0.0241462 0.00594349 0.999996 17.4406 610.167)" fill="#83E1E1" fill-opacity="0.38"/>
<rect width="3.82425" height="4.75968" rx="1.91212" transform="matrix(0.999804 -0.0241591 0.00594093 0.999996 18.5897 756.108)" fill="#83E1E1" fill-opacity="0.38"/>
<rect width="3.82426" height="4.75752" rx="1.91213" transform="matrix(0.999805 -0.0241504 0.00594388 0.999996 17.1536 573.68)" fill="#83E1E1" fill-opacity="0.38"/>
<rect width="3.82422" height="4.75585" rx="1.91211" transform="matrix(0.999805 -0.0241407 0.00594555 0.999996 18.3026 719.625)" fill="#83E1E1" fill-opacity="0.38"/>
<rect width="3.82422" height="4.75705" rx="1.91211" transform="matrix(0.999804 -0.024146 0.00594392 0.999996 17.7281 646.652)" fill="#83E1E1" fill-opacity="0.38"/>
<rect width="3.82425" height="4.75728" rx="1.91212" transform="matrix(0.999805 -0.0241479 0.00594407 0.999996 18.8774 792.595)" fill="#83E1E1" fill-opacity="0.38"/>
<rect width="3.8242" height="4.758" rx="1.9121" transform="matrix(0.999804 -0.0241512 0.00594282 0.999996 17.0099 555.438)" fill="#83E1E1" fill-opacity="0.38"/>
<rect width="3.82422" height="4.75632" rx="1.91211" transform="matrix(0.999804 -0.0241436 0.00594473 0.999996 18.1591 701.381)" fill="#83E1E1" fill-opacity="0.38"/>
<rect width="3.82425" height="4.75801" rx="1.91212" transform="matrix(0.999804 -0.0241501 0.00594265 0.999996 17.5847 628.41)" fill="#83E1E1" fill-opacity="0.38"/>
<rect width="3.82425" height="4.75824" rx="1.91212" transform="matrix(0.999804 -0.0241527 0.00594268 0.999996 18.7335 774.353)" fill="#83E1E1" fill-opacity="0.38"/>
<rect width="3.82425" height="4.75656" rx="1.91212" transform="matrix(0.999804 -0.0241444 0.00594469 0.999996 17.2971 591.924)" fill="#83E1E1" fill-opacity="0.38"/>
<rect width="3.82425" height="4.75633" rx="1.91213" transform="matrix(0.999805 -0.0241427 0.00594419 0.999996 18.446 737.867)" fill="#83E1E1" fill-opacity="0.38"/>
<rect width="3.82425" height="4.75609" rx="1.91213" transform="matrix(0.999805 -0.0241404 0.00594447 0.999996 17.8717 664.896)" fill="#83E1E1" fill-opacity="0.38"/>
<rect width="3.82425" height="4.75728" rx="1.91212" transform="matrix(0.999804 -0.0241474 0.00594354 0.999996 19.0206 810.839)" fill="#83E1E1" fill-opacity="0.38"/>
<rect width="3.82422" height="4.75657" rx="1.91211" transform="matrix(0.999804 -0.024144 0.00594418 0.999996 74.8499 536.438)" fill="#83E1E1" fill-opacity="0.38"/>
<rect width="3.82425" height="4.75824" rx="1.91212" transform="matrix(0.999804 -0.0241529 0.00594317 0.999996 75.9991 682.38)" fill="#83E1E1" fill-opacity="0.38"/>
<rect width="3.82425" height="4.75848" rx="1.91212" transform="matrix(0.999804 -0.0241539 0.00594276 0.999996 75.4246 609.409)" fill="#83E1E1" fill-opacity="0.38"/>
<rect width="3.82422" height="4.75824" rx="1.91211" transform="matrix(0.999804 -0.0241528 0.00594283 0.999996 76.5732 755.351)" fill="#83E1E1" fill-opacity="0.38"/>
<rect width="3.82425" height="4.75657" rx="1.91212" transform="matrix(0.999804 -0.0241438 0.00594449 0.999996 75.1368 572.924)" fill="#83E1E1" fill-opacity="0.38"/>
<rect width="3.82425" height="4.75536" rx="1.91212" transform="matrix(0.999804 -0.0241388 0.00594582 0.999996 76.2863 718.868)" fill="#83E1E1" fill-opacity="0.38"/>
<rect width="3.82425" height="4.75776" rx="1.91212" transform="matrix(0.999804 -0.0241499 0.0059431 0.999996 75.7117 645.895)" fill="#83E1E1" fill-opacity="0.38"/>
<rect width="3.82425" height="4.75585" rx="1.91212" transform="matrix(0.999805 -0.0241398 0.00594529 0.999996 76.861 791.838)" fill="#83E1E1" fill-opacity="0.38"/>
<rect width="3.82425" height="4.75728" rx="1.91212" transform="matrix(0.999804 -0.0241473 0.0059435 0.999996 74.9939 554.681)" fill="#83E1E1" fill-opacity="0.38"/>
<rect width="3.82422" height="4.75776" rx="1.91211" transform="matrix(0.999805 -0.0241507 0.00594328 0.999996 76.1426 700.623)" fill="#83E1E1" fill-opacity="0.38"/>
<rect width="3.82425" height="4.75776" rx="1.91212" transform="matrix(0.999804 -0.0241498 0.00594295 0.999996 75.5677 627.652)" fill="#83E1E1" fill-opacity="0.38"/>
<rect width="3.82422" height="4.75632" rx="1.91211" transform="matrix(0.999805 -0.0241437 0.00594501 0.999996 76.7172 773.596)" fill="#83E1E1" fill-opacity="0.38"/>
<rect width="3.82425" height="4.75848" rx="1.91212" transform="matrix(0.999804 -0.0241538 0.00594274 0.999996 75.2808 591.167)" fill="#83E1E1" fill-opacity="0.38"/>
<rect width="3.82425" height="4.75776" rx="1.91212" transform="matrix(0.999804 -0.0241493 0.00594315 0.999996 76.4297 737.108)" fill="#83E1E1" fill-opacity="0.38"/>
<rect width="3.82422" height="4.75656" rx="1.91211" transform="matrix(0.999804 -0.024146 0.00594488 0.999996 75.8556 664.138)" fill="#83E1E1" fill-opacity="0.38"/>
<rect width="3.82425" height="4.75584" rx="1.91212" transform="matrix(0.999805 -0.024141 0.00594557 0.999996 77.0043 810.081)" fill="#83E1E1" fill-opacity="0.38"/>
<path d="M467.561 209.948C775.375 195.58 1281.08 80.9598 1371.52 23.9684C1407.11 139.118 1403.81 954.419 1432.36 963.553C1468.06 974.97 1026.39 908.289 452.721 859.056C109.681 844.392 48.4044 910.831 -54.863 950.722L-15.9539 119.618C117.196 121.676 213.954 221.786 467.561 209.948Z" fill="#9B9B9B" fill-opacity="0.08"/>
</svg>
