<svg width="1337" height="1164" viewBox="0 0 1337 1164" fill="none" xmlns="http://www.w3.org/2000/svg">
<g opacity="0.3">
<path d="M494.255 843.693C345.853 796.912 263.38 638.985 310.044 490.957C356.708 342.929 514.839 260.85 663.241 307.631C811.643 354.413 894.116 512.339 847.452 660.368C800.788 808.396 642.657 890.475 494.255 843.693Z" stroke="#FFB8B8" stroke-opacity="0.46"/>
<path d="M514.869 780.648C401.031 744.762 337.746 623.689 373.514 510.226C409.282 396.762 530.559 333.87 644.397 369.756C758.236 405.641 821.52 526.715 785.753 640.178C749.985 753.642 628.707 816.534 514.869 780.648Z" stroke="#FFB8B8" stroke-opacity="0.46"/>
<path d="M530.948 713.214C453.16 688.693 409.889 606.057 434.292 528.645C458.695 451.233 541.534 408.352 619.321 432.874C697.109 457.395 740.381 540.031 715.978 617.443C691.575 694.855 608.736 737.736 530.948 713.214Z" stroke="#FFB8B8" stroke-opacity="0.46"/>
<circle cx="502.049" cy="375.406" r="19.0511" transform="rotate(107.497 502.049 375.406)" fill="url(#paint0_linear)"/>
<circle cx="1247.93" cy="666.443" r="42.9931" transform="rotate(107.497 1247.93 666.443)" fill="url(#paint1_linear)"/>
<circle cx="348.838" cy="735.507" r="21.1976" transform="rotate(107.497 348.838 735.507)" fill="url(#paint2_linear)"/>
<circle cx="455.194" cy="651.764" r="21.1976" transform="rotate(107.497 455.194 651.764)" fill="url(#paint3_linear)"/>
</g>
<defs>
<linearGradient id="paint0_linear" x1="482.998" y1="356.355" x2="509.811" y2="385.285" gradientUnits="userSpaceOnUse">
<stop offset="0.135417" stop-color="#D1E7FB"/>
<stop offset="1" stop-color="#EDC6FF" stop-opacity="0.92"/>
</linearGradient>
<linearGradient id="paint1_linear" x1="1204.94" y1="623.45" x2="1265.45" y2="688.736" gradientUnits="userSpaceOnUse">
<stop offset="0.203125" stop-color="#DDECFA"/>
<stop offset="0.203225" stop-color="#FDFDFD"/>
<stop offset="0.973958" stop-color="#FFCC9D" stop-opacity="0.92"/>
</linearGradient>
<linearGradient id="paint2_linear" x1="327.64" y1="714.309" x2="357.474" y2="746.498" gradientUnits="userSpaceOnUse">
<stop offset="0.135417" stop-color="#D1E7FB"/>
<stop offset="1" stop-color="#EDC6FF" stop-opacity="0.92"/>
</linearGradient>
<linearGradient id="paint3_linear" x1="433.996" y1="630.566" x2="463.83" y2="662.755" gradientUnits="userSpaceOnUse">
<stop offset="0.135417" stop-color="#D1E7FB"/>
<stop offset="1" stop-color="#EDC6FF" stop-opacity="0.92"/>
</linearGradient>
</defs>
</svg>
