<svg width="436" height="799" viewBox="0 0 436 799" fill="none" xmlns="http://www.w3.org/2000/svg">
<g opacity="0.4">
<path d="M224.491 571.733C130.503 475.018 132.876 319.387 229.791 224.121C326.706 128.855 481.463 130.03 575.451 226.745C669.439 323.46 667.067 479.092 570.152 574.357C473.237 669.623 318.479 668.448 224.491 571.733Z" stroke="white"/>
<path d="M266.343 531.451C194.252 457.268 196.026 337.94 270.306 264.925C344.585 191.909 463.242 192.855 535.334 267.039C607.425 341.222 605.651 460.55 531.371 533.565C457.092 606.581 338.435 605.635 266.343 531.451Z" stroke="white"/>
<path d="M306.547 485.927C257.294 435.245 258.445 353.781 309.115 303.973C359.785 254.165 440.789 254.872 490.042 305.554C539.296 356.237 538.145 437.7 487.475 487.508C436.804 537.316 355.8 536.609 306.547 485.927Z" stroke="white"/>
<ellipse rx="16.6261" ry="16.5755" transform="matrix(-0.715672 0.703493 -0.694434 -0.714583 424.282 213.227)" fill="url(#paint0_linear)"/>
<ellipse rx="34.0838" ry="33.9606" transform="matrix(-0.715672 0.703493 -0.694434 -0.714583 201.695 249.425)" fill="url(#paint1_linear)"/>
<ellipse rx="18.4993" ry="18.4431" transform="matrix(-0.715672 0.703493 -0.694434 -0.714583 158.136 428.822)" fill="url(#paint2_linear)"/>
<ellipse rx="18.4993" ry="18.4431" transform="matrix(-0.715672 0.703493 -0.694434 -0.714583 274.065 407.568)" fill="url(#paint3_linear)"/>
</g>
<defs>
<linearGradient id="paint0_linear" x1="0" y1="0" x2="23.323" y2="25.241" gradientUnits="userSpaceOnUse">
<stop offset="0.203125" stop-color="#1289F7"/>
<stop offset="0.973958" stop-color="#692489" stop-opacity="0.92"/>
</linearGradient>
<linearGradient id="paint1_linear" x1="0" y1="0" x2="47.7829" y2="51.7423" gradientUnits="userSpaceOnUse">
<stop offset="0.203125" stop-color="white"/>
<stop offset="0.973958" stop-color="#F8EAFF"/>
</linearGradient>
<linearGradient id="paint2_linear" x1="0" y1="0" x2="25.9508" y2="28.0849" gradientUnits="userSpaceOnUse">
<stop offset="0.203125" stop-color="#1289F7"/>
<stop offset="0.973958" stop-color="#692489" stop-opacity="0.92"/>
</linearGradient>
<linearGradient id="paint3_linear" x1="0" y1="0" x2="25.9508" y2="28.0849" gradientUnits="userSpaceOnUse">
<stop offset="0.203125" stop-color="#1289F7"/>
<stop offset="0.973958" stop-color="#692489" stop-opacity="0.92"/>
</linearGradient>
</defs>
</svg>
