<svg width="702" height="701" viewBox="0 0 702 701" fill="none" xmlns="http://www.w3.org/2000/svg">
<path opacity="0.4" d="M303.429 486.892C226.361 462.598 183.49 380.727 207.667 304.031C231.844 227.336 313.917 184.852 390.984 209.147C468.052 233.441 510.923 315.312 486.746 392.007C462.569 468.703 380.496 511.187 303.429 486.892Z" stroke="#FFB8B8" stroke-opacity="0.46"/>
<path opacity="0.4" d="M287.498 553.705C174.712 518.15 112.012 398.196 147.45 285.782C182.887 173.367 303.043 111.056 415.829 146.611C528.614 182.165 591.314 302.119 555.877 414.533C520.44 526.948 400.283 589.259 287.498 553.705Z" stroke="#FFB8B8" stroke-opacity="0.46"/>
<path d="M267.074 616.168C120.043 569.819 38.3326 413.352 84.5654 266.691C130.798 120.031 287.468 38.7101 434.499 85.0596C581.53 131.409 663.24 287.876 617.007 434.537C570.775 581.197 414.105 662.518 267.074 616.168Z" stroke="#FFB8B8" stroke-opacity="0.46"/>
<circle opacity="0.3" cx="348.977" cy="347.977" r="86.8771" transform="rotate(107.497 348.977 347.977)" fill="url(#paint0_linear)"/>
<circle cx="72.3511" cy="330.351" r="11.4407" transform="rotate(107.497 72.3511 330.351)" fill="url(#paint1_linear)"/>
<circle cx="586.351" cy="202.351" r="11.4407" transform="rotate(107.497 586.351 202.351)" fill="url(#paint2_linear)"/>
<circle cx="408.351" cy="623.351" r="11.4407" transform="rotate(107.497 408.351 623.351)" fill="url(#paint3_linear)"/>
<defs>
<linearGradient id="paint0_linear" x1="262.1" y1="261.1" x2="434.639" y2="448.344" gradientUnits="userSpaceOnUse">
<stop offset="0.0092409" stop-color="#FDFDFD"/>
<stop offset="0.317044" stop-color="#DDECFA"/>
<stop offset="0.973958" stop-color="#FFCC9D" stop-opacity="0.92"/>
<stop offset="1" stop-color="#FAD1AB" stop-opacity="0.931703"/>
</linearGradient>
<linearGradient id="paint1_linear" x1="60.9103" y1="318.91" x2="77.0121" y2="336.283" gradientUnits="userSpaceOnUse">
<stop offset="0.135417" stop-color="#ACD7FF"/>
<stop offset="1" stop-color="#F8E8FF" stop-opacity="0.92"/>
</linearGradient>
<linearGradient id="paint2_linear" x1="574.91" y1="190.91" x2="591.012" y2="208.283" gradientUnits="userSpaceOnUse">
<stop offset="0.135417" stop-color="#ACD7FF"/>
<stop offset="1" stop-color="#F8E8FF" stop-opacity="0.92"/>
</linearGradient>
<linearGradient id="paint3_linear" x1="396.91" y1="611.91" x2="413.012" y2="629.283" gradientUnits="userSpaceOnUse">
<stop offset="0.135417" stop-color="#ACD7FF"/>
<stop offset="1" stop-color="#F8E8FF" stop-opacity="0.92"/>
</linearGradient>
</defs>
</svg>
