<svg width="656" height="976" fill="none" xmlns="http://www.w3.org/2000/svg"><g opacity=".3"><path d="M84.014 753.168c-147.03-46.349-228.741-202.816-182.508-349.477 46.232-146.66 202.902-227.981 349.933-181.631C398.47 268.409 480.18 424.876 433.948 571.537c-46.233 146.66-202.903 227.981-349.934 181.631z" stroke="#FFB8B8" stroke-opacity=".46"/><path d="M104.438 690.705C-8.348 655.15-71.047 535.196-35.61 422.782-.173 310.367 119.983 248.056 232.769 283.611c112.786 35.554 175.486 155.508 140.048 267.922-35.437 112.415-155.593 174.726-268.379 139.172z" stroke="#FFB8B8" stroke-opacity=".46"/><path d="M120.369 623.892C43.301 599.598.43 517.727 24.607 441.031c24.177-76.695 106.25-119.179 183.318-94.884 77.067 24.294 119.938 106.165 95.761 182.86-24.177 76.696-106.249 119.18-183.317 94.885z" stroke="#FFB8B8" stroke-opacity=".46"/><circle cx="91.736" cy="289.205" r="18.875" transform="rotate(107.497 91.736 289.205)" fill="url(#prefix__paint0_linear)"/><circle cx="45.312" cy="563.013" r="21.002" transform="rotate(107.497 45.312 563.013)" fill="url(#prefix__paint1_linear)"/></g><defs><linearGradient id="prefix__paint0_linear" x1="72.86" y1="270.329" x2="99.425" y2="298.992" gradientUnits="userSpaceOnUse"><stop offset=".135" stop-color="#D1E7FB"/><stop offset="1" stop-color="#EDC6FF" stop-opacity=".92"/></linearGradient><linearGradient id="prefix__paint1_linear" x1="24.31" y1="542.011" x2="53.868" y2="573.903" gradientUnits="userSpaceOnUse"><stop offset=".135" stop-color="#D1E7FB"/><stop offset="1" stop-color="#EDC6FF" stop-opacity=".92"/></linearGradient></defs></svg>