<svg width="675" height="675" fill="none" xmlns="http://www.w3.org/2000/svg"><g opacity=".3"><path d="M404.014 753.168c-147.031-46.349-228.741-202.816-182.508-349.477 46.232-146.66 202.902-227.981 349.933-181.631 147.031 46.349 228.742 202.816 182.509 349.477-46.233 146.66-202.903 227.981-349.934 181.631z" stroke="#FFB8B8" stroke-opacity=".46"/><path d="M424.438 690.705C311.652 655.15 248.953 535.196 284.39 422.782c35.437-112.415 155.594-174.726 268.379-139.171 112.786 35.554 175.486 155.508 140.048 267.922-35.437 112.415-155.593 174.726-268.379 139.172z" stroke="#FFB8B8" stroke-opacity=".46"/><path d="M440.369 623.892c-77.068-24.294-119.939-106.165-95.762-182.861 24.177-76.695 106.25-119.179 183.318-94.884 77.067 24.294 119.939 106.165 95.761 182.86-24.177 76.696-106.249 119.18-183.317 94.885z" stroke="#FFB8B8" stroke-opacity=".46"/><circle cx="411.736" cy="289.205" r="18.875" transform="rotate(107.497 411.736 289.205)" fill="url(#prefix__paint0_linear)"/><circle cx="235.775" cy="405.138" r="42.597" transform="rotate(107.497 235.775 405.138)" fill="url(#prefix__paint1_linear)"/><circle cx="259.937" cy="645.984" r="21.002" transform="rotate(107.497 259.937 645.984)" fill="url(#prefix__paint2_linear)"/><circle cx="365.312" cy="563.013" r="21.002" transform="rotate(107.497 365.312 563.013)" fill="url(#prefix__paint3_linear)"/></g><defs><linearGradient id="prefix__paint0_linear" x1="392.86" y1="270.329" x2="419.426" y2="298.992" gradientUnits="userSpaceOnUse"><stop offset=".135" stop-color="#D1E7FB"/><stop offset="1" stop-color="#EDC6FF" stop-opacity=".92"/></linearGradient><linearGradient id="prefix__paint1_linear" x1="193.178" y1="362.541" x2="253.129" y2="427.225" gradientUnits="userSpaceOnUse"><stop offset=".203" stop-color="#DDECFA"/><stop offset=".203" stop-color="#FDFDFD"/><stop offset=".974" stop-color="#FFCC9D" stop-opacity=".92"/></linearGradient><linearGradient id="prefix__paint2_linear" x1="238.935" y1="624.982" x2="268.493" y2="656.874" gradientUnits="userSpaceOnUse"><stop offset=".135" stop-color="#D1E7FB"/><stop offset="1" stop-color="#EDC6FF" stop-opacity=".92"/></linearGradient><linearGradient id="prefix__paint3_linear" x1="344.31" y1="542.011" x2="373.868" y2="573.903" gradientUnits="userSpaceOnUse"><stop offset=".135" stop-color="#D1E7FB"/><stop offset="1" stop-color="#EDC6FF" stop-opacity=".92"/></linearGradient></defs></svg>